<?xml version="1.0" encoding="UTF-8" standalone="no"?>
<svg
   enable-background="new 0 0 1000 1000"
   viewBox="0 0 1000 1000"
   id="trajectory-education"
   version="1.1"
   sodipodi:docname="ilustrasi_sekolah.svg"
   inkscape:version="1.2.2 (b0a8486541, 2022-12-01)"
   xmlns:inkscape="http://www.inkscape.org/namespaces/inkscape"
   xmlns:sodipodi="http://sodipodi.sourceforge.net/DTD/sodipodi-0.dtd"
   xmlns="http://www.w3.org/2000/svg"
   xmlns:svg="http://www.w3.org/2000/svg">
  <defs
     id="defs441" />
  <sodipodi:namedview
     id="namedview439"
     pagecolor="#ffffff"
     bordercolor="#000000"
     borderopacity="0.25"
     inkscape:showpageshadow="2"
     inkscape:pageopacity="0.0"
     inkscape:pagecheckerboard="0"
     inkscape:deskcolor="#d1d1d1"
     showgrid="false"
     inkscape:zoom="0.9642597"
     inkscape:cx="568.31163"
     inkscape:cy="665.27721"
     inkscape:window-width="1920"
     inkscape:window-height="1056"
     inkscape:window-x="0"
     inkscape:window-y="0"
     inkscape:window-maximized="1"
     inkscape:current-layer="trajectory-education" />
  <path
     id="path2"
     d="m 466.39453,223.82812 c -130.91484,3.07948 -241.08736,123.15653 -269.125,146.6211 -76.19952,63.75958 30.97097,159.69114 9.37109,223.30078 -14.88957,43.85538 -18.15477,105.30862 -18.77539,140.04492 0.0203,0.28188 0.0438,0.56401 0.0664,0.8457 0.0348,0.19927 0.069,0.39862 0.10547,0.59766 0.28238,1.57506 0.57363,3.14901 0.93945,4.70703 0.26502,1.12265 0.6094,2.22214 1.02149,3.29883 0.45304,1.10539 0.95883,2.1883 1.47851,3.26367 0.64325,1.26673 1.34755,2.50092 2.04492,3.73828 0.64475,1.14977 1.36003,2.25725 2.09375,3.35157 0.56808,0.87003 1.1989,1.69325 1.88477,2.47265 0.82127,0.9028 1.72604,1.72439 2.63672,2.53516 0.95857,0.85936 1.979,1.64114 3.06836,2.32617 0.95991,0.57204 1.96756,1.05711 2.97461,1.53906 0.75496,0.35884 1.52534,0.68174 2.29883,0.99805 0.0468,0.0193 0.0957,0.0335 0.14257,0.0527 0.0663,0.0113 0.13271,0.0248 0.19922,0.0352 0.19846,0.0357 0.39682,0.0777 0.59375,0.12109 0.11609,0.0226 0.23219,0.0447 0.34766,0.0703 0.16591,0.0413 0.32622,0.0976 0.49219,0.13867 0.45104,0.10519 0.90972,0.17512 1.36914,0.23242 1.00502,0.12413 2.01326,0.22447 3.02148,0.32031 l 519.28516,-0.01 c 0,0 38.95129,-7.11049 54.95117,-35.82031 15.99988,-28.69988 55.89873,-174.17882 25.37891,-220.22852 -30.51982,-46.0497 -122.06,-74.19052 -122,-43.9707 0.05,30.21982 24.81017,98.09884 11.99023,84.1289 -12.80994,-13.96964 -48.2602,-84.12903 -72.58008,-147.63867 -24.31982,-63.50964 32.0185,-122.57092 -90.80078,-165.39062 -25.27639,-8.81093 -50.2311,-12.25187 -74.47461,-11.68165 z"
     style="fill:#c2d8f2;fill-opacity:1" />
  <path
     id="path4"
     d="m 314.83984,250.30078 c -8.12994,0 -14.75,6.62006 -14.75,14.75 0,8.12994 6.62006,14.75 14.75,14.75 8.13,0 14.75,-6.61006 14.75,-14.75 0,-8.12994 -6.62,-14.75 -14.75,-14.75 z m 0,3.58008 c 6.16,0 11.16993,5.00998 11.16993,11.16992 0,6.16 -5.00993,11.16992 -11.16993,11.16992 -6.15994,0 -11.16992,-5.00992 -11.16992,-11.16992 0,-6.15994 5.00998,-11.16992 11.16992,-11.16992 z M 173.55078,374.90039 c -8.12994,0 -14.75,6.62006 -14.75,14.75 0,8.12994 6.62006,14.75 14.75,14.75 8.13994,0 14.75,-6.62006 14.75,-14.75 0,-8.12994 -6.62006,-14.75 -14.75,-14.75 z m 602.08984,2.32031 c -8.12994,0 -14.74999,6.62006 -14.75,14.75 10e-6,8.12994 6.62006,14.75 14.75,14.75 8.14,0 14.75,-6.62006 14.75,-14.75 0,-8.12994 -6.62,-14.75 -14.75,-14.75 z m -602.08984,1.25977 c 6.16,0 11.17992,5.00998 11.16992,11.16992 0,6.15994 -5.00992,11.16992 -11.16992,11.16992 -6.15994,0 -11.16992,-5.00998 -11.16992,-11.16992 0,-6.15994 5.00998,-11.16992 11.16992,-11.16992 z m 602.08984,2.32031 c 6.16,0 11.16993,5.00998 11.16993,11.16992 0,6.16 -5.00993,11.16992 -11.16993,11.16992 -6.15994,0 -11.16992,-5.00992 -11.16992,-11.16992 0,-6.15994 5.00998,-11.16992 11.16992,-11.16992 z m -526.65039,75.33008 c -6.07994,31.14982 -8.54984,66.96922 -7.33984,106.45898 0.97,31.55982 4.27037,65.54071 9.82031,100.98047 9.44994,60.32964 22.31922,104.62055 22.44922,105.06055 l 3.42969,-1 c -0.13,-0.44 -12.94944,-44.55052 -22.35938,-104.66016 C 246.32029,607.55106 238.84006,526.78989 252.5,456.82031 Z m -118.29101,150.10937 -0.73828,3.5 c 37.20976,7.9 68.33832,50.58024 87.9082,85 21.32988,37.50982 33.91125,73.62047 34.03125,73.98047 l 3.36914,-1.16015 c -0.12,-0.37 -12.78965,-36.74126 -34.26953,-74.54102 -12.63994,-22.23988 -25.82957,-40.63998 -39.18945,-54.66992 -16.82994,-17.67988 -34.03145,-28.47938 -51.11133,-32.10938 z m 247.43359,46.84571 c -4.33576,-0.15715 -8.67219,0.53297 -12.99219,2.07422 -10.00988,3.56994 -19.98068,11.7692 -29.64062,24.36914 -7.62994,9.95994 -15.12029,22.70121 -22.24023,37.87109 -12.08994,25.76982 -19.07063,50.00029 -19.14063,50.24023 l 3.44141,0.97852 c 0.07,-0.24 6.9698,-24.18963 18.92968,-49.68945 15.71994,-33.48982 32.95973,-54.37045 49.84961,-60.40039 10.36994,-3.7 20.91991,-1.90992 31.33985,5.33008 l 2.04101,-2.93946 c -7.13744,-4.95619 -14.36153,-7.57207 -21.58789,-7.83398 z"
     style="fill:#99bbdd;fill-opacity:1" />
  <path
     fill="#9bd"
     d="M314.82,769.06l-3.05-1.86c0.12-0.2,12.1-19.8,22.13-33.48c4.7-6.4,11.24-7.66,17.01-8.78      c7.53-1.45,12.5-2.41,12.04-13.38l-0.08-1.84c-0.61-14.13-1.01-23.46,3.87-28.17c2.59-2.5,6.38-3.47,11.92-3.04      c6.03,0.47,11.5-0.51,16.78-1.45c8.09-1.45,15.74-2.81,23.46,1.59c0.67,0.38,1.07,0.49,1.26,0.51c0.26-0.75,0.08-3.48-2.11-8.1      c-4.29-9.09-16.52-24.98-35.12-26.86c-31.11-3.15-34.9-1.59-44.38,9.54c-4.56,5.35-6.89,8.57-8.6,10.92      c-3.67,5.07-4.24,5.85-15.71,12.86c-16.98,10.38-17.81,17.63-16.64,22.79c2.73,11.97-8.69,65.91-9.18,68.2l-3.5-0.74      c4.07-19.13,11.23-57.69,9.19-66.66c-2.14-9.39,3.49-17.61,18.26-26.63c10.86-6.64,11.3-7.24,14.68-11.91      c1.74-2.4,4.12-5.69,8.77-11.15c5.35-6.28,9.3-9.75,16-11.29c6.77-1.56,16.28-1.02,31.46,0.52      c12.35,1.25,21.55,8.11,27.09,13.65c7.2,7.2,11.31,15.06,12.76,20.03c1.12,3.85,0.86,6.45-0.77,7.74      c-0.91,0.71-2.55,1.24-5.23-0.29c-6.59-3.76-13.3-2.56-21.06-1.18c-5.25,0.94-11.21,2-17.69,1.5c-4.44-0.35-7.35,0.31-9.15,2.05      c-3.72,3.59-3.32,12.76-2.78,25.44l0.08,1.84c0.59,14.05-7.3,15.57-14.93,17.05c-5.38,1.04-10.94,2.11-14.8,7.38      C326.84,749.39,314.94,768.87,314.82,769.06z"
     id="path6" />
  <path
     id="path8"
     d="m 255.71289,430.33398 c -2.97047,-0.0818 -6.24305,0.41985 -9.87305,1.4961 -9.34999,2.78 -15.94055,9.3593 -19.06054,19.0293 -2.81,8.71999 -2.75008,19.70001 0.16992,31.75 2.3,9.48999 -1.97954,21.42079 -6.51953,34.05078 -5.86,16.29998 -12.48968,34.76962 -5.67969,51.59961 3.7,9.13999 6.49961,14.27969 8.34961,17.67968 3.95,7.24 3.94945,7.24135 1.18945,26.11133 -1.05,7.19999 -1.9782,12.35891 -2.6582,16.12891 -2.08,11.54999 -2.30133,12.76111 1.38867,27.12109 l 3.46094,-0.89062 c -3.5,-13.59999 -3.33984,-14.49986 -1.33985,-25.58985 0.69,-3.78999 1.61969,-8.99024 2.67969,-16.24023 2.88,-19.67998 2.84992,-20.20985 -1.58008,-28.33985 -1.91999,-3.52999 -4.54992,-8.36055 -8.16992,-17.31054 -6.29999,-15.55999 -0.17952,-32.57908 5.73047,-49.03907 4.72,-13.14998 9.1789,-25.57157 6.62891,-36.10156 -2.77,-11.40999 -2.85023,-21.7186 -0.24024,-29.80859 2.78,-8.62999 8.3997,-14.24118 16.67969,-16.70117 8.42999,-2.5 14.27118,-1.58906 18.95117,2.96093 4.22,4.1 7.66954,11.23033 11.51953,23.82032 3.34,10.89999 0.88984,13.91039 -3.16015,18.90039 -3.81,4.69999 -9.04,11.11908 -10.75,26.53906 -2.13,19.15998 0.93055,22.8404 5.56054,28.40039 2.94,3.52 6.59001,7.91001 10,18.5 4.39,13.62999 1.35023,17.28016 -2.50976,21.91016 -3.46,4.14999 -7.39086,8.84891 -6.38086,20.6289 0.5,5.8 1.55961,9.71008 3.34961,12.33008 1.72,2.52 3.8807,3.55102 5.9707,4.54102 3.79,1.8 8.08063,3.83923 11.64063,16.94922 3.79999,13.99998 0.37038,20.98032 -3.59961,29.07031 -3.45,7.02999 -7.36149,15.00017 -6.02149,28.41015 2.74,27.43998 9.58039,47.80977 9.65039,48.00977 l 3.3711,-1.15039 c -0.06,-0.2 -6.78047,-20.20878 -9.48047,-47.21875 -1.24,-12.39999 2.27969,-19.56048 5.67969,-26.48047 3.92999,-8.00999 7.98984,-16.27986 3.83984,-31.58984 -3.99,-14.69999 -9.29079,-17.22001 -13.55078,-19.25 -3.7,-1.76 -6.35883,-3.03119 -7.29883,-13.95117 -0.89,-10.30999 2.25055,-14.06907 5.56055,-18.03907 4.00999,-4.80999 8.15991,-9.79103 3.16992,-25.29101 -3.62,-11.24999 -7.52039,-15.92946 -10.65039,-19.68946 -4.19,-5.02999 -6.71976,-8.059 -4.75977,-25.70898 1.6,-14.36999 6.23876,-20.09165 9.96875,-24.68164 4.3,-5.29 7.70055,-9.47923 3.81055,-22.19922 -4.04,-13.20999 -7.75922,-20.78985 -12.44922,-25.33984 -3.525,-3.43125 -7.63711,-5.18985 -12.58789,-5.32618 z"
     style="fill:#99bbdd;fill-opacity:1" />
  <path
     id="path10"
     d="m 779.78906,516.25 -3.5,0.71094 c 11.45994,56.39964 5.92166,121.64928 -0.73828,166.45898 -7.22994,48.6097 -17.31016,84.30992 -17.41016,84.66992 l 3.43946,0.97071 c 0.1,-0.36 10.23006,-36.24056 17.5,-85.07032 4.26994,-28.67982 6.7306,-56.16957 7.31054,-81.68945 0.73,-31.93982 -1.49156,-60.90096 -6.60156,-86.05078 z m -660.52344,78.7793 c -4.55514,-0.22764 -8.9281,0.26828 -12.68554,1.55078 -5.77,1.97 -9.820717,5.68953 -11.720705,10.76953 -1.239994,3.31 -1.139447,6.08094 0.310547,8.21094 3.229982,4.76994 12.131078,4.96015 21.541018,5.16015 4.73994,0.1 9.63982,0.20875 13.25976,0.96875 2.09,0.44 3.32,1.03125 3.75,1.78125 0.4,0.7 0.33953,1.87891 0.26953,3.37891 -0.24,4.74994 -0.5897,11.93092 11.74024,21.38086 11.37994,8.70994 18.34951,9.40992 23.43945,9.91992 4.27,0.43 7.09977,0.7092 11.00977,5.61914 7.57994,9.51994 9.25107,13.72051 14.79101,27.65039 1.13,2.84 2.40969,6.06084 3.92969,9.80078 3.44,8.45994 8.34883,13.06899 13.54883,17.95899 8.79994,8.26994 18.77086,17.64026 25.63086,49.33008 l 3.50976,-0.75 c -7.09994,-32.77982 -17.49974,-42.54975 -26.67968,-51.17969 -5.12,-4.82 -9.53969,-8.96928 -12.67969,-16.69922 -1.52,-3.72 -2.78992,-6.94154 -3.91992,-9.77148 -5.54,-13.92994 -7.41032,-18.62866 -15.32032,-28.5586 -4.84994,-6.08994 -8.84099,-6.49117 -13.46093,-6.95117 -4.93,-0.49 -11.0592,-1.09928 -21.61914,-9.19922 -10.83994,-8.30994 -10.54985,-14.12133 -10.33985,-18.36133 0.18,-3.59994 0.36057,-7.30984 -6.85937,-8.83984 -3.95,-0.84 -9.0217,-0.94883 -13.93164,-1.04883 -7.72,-0.16 -16.46016,-0.3499 -18.660159,-3.58984 -0.77,-1.13 -0.739926,-2.75123 0.08008,-4.95117 1.539988,-4.1 4.741251,-6.99868 9.531251,-8.63868 8.93994,-3.05994 22.36928,-0.97101 31.94922,4.95899 7.25994,4.49994 12.77086,2.64 17.63086,1 5.67994,-1.92 11.0399,-3.72877 20.08984,3.45117 7.37994,5.85994 10.08875,12.68881 12.46875,18.71875 3.25,8.20994 6.05084,15.2901 19.05078,14.66016 10.04994,-0.5 12.41094,6.20967 15.71094,18.09961 2.28,8.19994 4.85842,17.4906 11.81836,25.06054 15.32988,16.66994 29.05146,81.92008 29.1914,82.58008 l 3.5,-0.73047 c -0.56994,-2.72 -14.06066,-66.87965 -30.06054,-84.26953 -6.37,-6.92994 -8.83,-15.7799 -11,-23.58984 -3.06,-10.99994 -5.93991,-21.38071 -19.33985,-20.72071 -10.42994,0.52 -12.36101,-4.35045 -15.54101,-12.40039 -2.42,-6.12994 -5.43842,-13.75904 -13.56836,-20.20898 -10.56994,-8.38994 -17.42094,-6.08102 -23.46094,-4.04102 -4.69994,1.59 -8.76961,2.96156 -14.59961,-0.64844 -6.61244,-4.09369 -14.7127,-6.48193 -22.30469,-6.86132 z m 756.61524,41.5 c -13.84994,3.04994 -27.7316,11.92144 -41.27148,26.36132 -10.72994,11.43994 -21.28897,26.40864 -31.37891,44.47852 -17.13988,30.69982 -27.16,60.2 -27.25,60.5 l 3.38867,1.14063 c 0.1,-0.29 10.03184,-29.51964 27.01172,-59.93946 15.55988,-27.85982 40.37971,-62.46084 70.26953,-69.05078 z m -199.57227,39.37109 c -5.90346,0.25586 -11.78789,2.43555 -17.58789,6.5293 l 2.0586,2.91992 c 8.27994,-5.83994 16.68047,-7.33893 24.98047,-4.45899 13.58988,4.73 27.56951,21.42948 40.43945,48.2793 9.82994,20.51988 15.56109,39.8393 15.62109,40.0293 l 3.42969,-1.00977 c -0.06,-0.2 -5.85084,-19.75965 -15.80078,-40.51953 -5.86,-12.23994 -12.00006,-22.5093 -18.25,-30.5293 -7.92994,-10.17988 -16.08983,-16.78109 -24.25977,-19.62109 -3.53994,-1.23375 -7.08875,-1.77265 -10.63086,-1.61914 z"
     style="fill:#99bbdd;fill-opacity:1" />
  <path
     fill="#9bd"
     d="M727.91,769.75l3.04-1.89c-0.1-0.16-9.9-15.93-18.1-26.94c-3.91-5.25-9.51-6.29-14.01-7.12      c-6.13-1.13-9.82-1.81-9.53-10.39l0.05-1.49c0.41-11.51,0.67-19.12-3.4-23c-2.19-2.08-5.33-2.87-9.91-2.48      c-4.82,0.41-9.23-0.34-13.48-1.07c-6.61-1.13-12.86-2.2-19.17,1.47c-0.24,0.14-0.42,0.23-0.56,0.28      c-0.07-1.04,0.41-3.87,2.83-8.22c4.73-8.52,14.25-18.12,26.79-19.49c24.95-2.72,27.99-1.5,35.62,7.32      c3.71,4.28,5.61,6.87,7,8.75c3.11,4.22,3.85,4.97,12.88,10.39c13.6,8.17,14.32,13.88,13.43,17.94      c-2.14,9.76,7.43,53.34,7.84,55.19l3.49-0.77c-2.74-12.39-9.48-46.19-7.84-53.66c1.71-7.77-2.94-14.48-15.08-21.77      c-8.76-5.26-9.05-5.66-11.84-9.44c-1.42-1.93-3.37-4.58-7.17-8.97c-8.86-10.24-13.56-11.27-38.72-8.53      c-10.07,1.1-17.53,6.75-22.01,11.29c-5.82,5.91-9.12,12.35-10.27,16.41c-0.92,3.26-0.66,5.49,0.79,6.61      c0.82,0.64,2.28,1.11,4.61-0.24c5.2-3.02,10.56-2.1,16.78-1.04c4.27,0.73,9.11,1.56,14.39,1.11c3.48-0.3,5.75,0.18,7.14,1.5      c2.91,2.77,2.65,10.12,2.3,20.28l-0.05,1.49c-0.4,11.66,6.43,12.92,12.45,14.03c4.29,0.79,8.72,1.61,11.79,5.74      C718.09,753.94,727.82,769.59,727.91,769.75z"
     id="path12" />
  <path
     fill="#9bd"
     d="M747.51,743.01c0.05-0.16,5.47-16.7,7.52-38.93c1.01-10.94-2.22-17.4-5.08-23.1      c-3.23-6.45-6.01-12.02-3.06-23.23c2.75-10.46,6.13-12.1,9.11-13.55c4.1-1.99,6.85-4.04,7.62-13.97      c0.75-9.66-2.5-13.5-5.36-16.88c-3.08-3.63-5.51-6.5-2.1-17.36c2.67-8.51,5.57-12.05,7.9-14.9c4.11-5.01,6.17-8.32,4.39-23.24      c-1.49-12.55-5.79-17.75-8.93-21.55c-3.23-3.92-5.18-6.28-2.61-14.93c5.99-20.13,11.61-25.18,24.03-21.6      c6.59,1.9,11.08,6.33,13.35,13.17c2.14,6.46,2.13,14.73-0.02,23.9c-2.02,8.62,1.68,18.68,5.59,29.32      c4.86,13.2,9.88,26.86,4.94,39.35c-2.86,7.24-4.95,11.15-6.48,14c-3.55,6.63-3.58,7.28-1.14,23.12      c0.9,5.86,1.69,10.05,2.27,13.12c1.7,9.06,1.8,9.6-0.92,20.54l3.47,0.86c2.83-11.37,2.75-12.58,0.96-22.07      c-0.57-3.04-1.35-7.2-2.25-13c-2.33-15.12-2.33-15.12,0.76-20.89c1.48-2.77,3.71-6.95,6.65-14.37      c5.45-13.76-0.05-28.71-4.91-41.9c-3.73-10.13-7.25-19.69-5.47-27.27c2.3-9.82,2.28-18.75-0.07-25.84      c-2.62-7.91-8.06-13.26-15.75-15.48c-7.97-2.3-13.84-1.24-18.46,3.32c-3.8,3.75-6.79,9.94-9.99,20.7      c-3.12,10.48-0.15,14.07,3.28,18.23c3.01,3.65,6.77,8.2,8.13,19.7c1.68,14.1-0.31,16.53-3.61,20.55      c-2.53,3.08-5.67,6.92-8.55,16.09c-4,12.74-0.55,16.81,2.78,20.74c2.66,3.14,5.16,6.1,4.52,14.29      c-0.67,8.64-2.75,9.64-5.62,11.03c-3.49,1.69-7.84,3.8-11.01,15.86c-3.29,12.52,0.07,19.24,3.32,25.74      c2.77,5.53,5.63,11.25,4.72,21.17c-2.01,21.8-7.3,37.97-7.35,38.13L747.51,743.01z"
     id="path14" />
  <path
     fill="#9bd"
     d="M768.28,768.87c0.11-0.53,10.77-53.25,22.99-66.74c5.63-6.22,7.67-13.78,9.47-20.46      c2.62-9.73,4.36-14.8,12.24-14.47c10.75,0.45,13.12-5.69,15.63-12.18c1.87-4.85,4-10.34,9.85-15.06      c7.12-5.74,11.18-4.4,15.89-2.85c4.01,1.32,8.55,2.81,14.53-0.95c7.62-4.8,18.34-6.56,25.49-4.17c3.78,1.26,6.31,3.52,7.54,6.72      c0.95,2.47,0.33,3.39,0.13,3.69c-1.66,2.49-8.63,2.69-14.78,2.86c-3.98,0.11-8.1,0.23-11.31,0.94      c-6.11,1.34-5.92,4.63-5.75,7.54c0.19,3.35,0.46,7.94-8.11,14.61c-8.41,6.55-13.3,7.08-17.23,7.5      c-3.81,0.41-7.09,0.76-11.06,5.83c-6.37,8.12-7.85,11.93-12.25,23.26c-0.89,2.3-1.9,4.9-3.1,7.92      c-2.46,6.19-5.98,9.56-10.06,13.45c-7.4,7.06-15.79,15.06-21.34,41.69l3.5,0.73c5.33-25.54,13.28-33.14,20.31-39.84      c4.2-4.01,8.17-7.79,10.92-14.71c1.21-3.03,2.22-5.64,3.11-7.95c4.37-11.25,5.69-14.65,11.73-22.34      c3.04-3.88,5.14-4.1,8.63-4.48c4.15-0.45,9.84-1.06,19.05-8.23c10.05-7.83,9.71-13.73,9.49-17.64      c-0.06-1.11-0.12-2.06,0.15-2.55c0.36-0.64,1.72-1.06,2.8-1.29c2.89-0.63,6.83-0.75,10.65-0.86c7.7-0.22,14.97-0.43,17.65-4.46      c1.22-1.83,1.3-4.17,0.23-6.95c-1.6-4.19-4.98-7.24-9.75-8.83c-8.21-2.73-19.94-0.87-28.53,4.54      c-4.55,2.87-7.62,1.86-11.51,0.58c-4.98-1.64-10.62-3.49-19.25,3.47c-6.6,5.32-9.01,11.55-10.94,16.55      c-2.47,6.38-3.96,10.24-12.15,9.9c-11.1-0.46-13.4,8.07-15.84,17.11c-1.69,6.29-3.61,13.41-8.67,18.99      c-12.88,14.22-23.41,66.23-23.85,68.44L768.28,768.87z"
     id="path16" />
  <g
     id="g50">
    <path
       fill="#9bd"
       d="M439.78,437.28c-0.09-0.03-0.18-0.06-0.27-0.1l-13.72-5.44c-1.57-0.62-2.64-2.11-2.72-3.79l-0.28-5.52       l25.28,10.01l-3.98,3.83C442.94,437.38,441.28,437.76,439.78,437.28z M427.1,428.42l13.72,5.44c0.26,0.1,0.56,0.05,0.76-0.14       l-14.95-5.92C426.66,428.07,426.84,428.32,427.1,428.42z"
       id="path20" />
    <path
       fill="#9bd"
       d="M444.32,434.77c-0.21-0.07-0.42-0.14-0.63-0.23l-19.14-7.58c-2.69-1.07-4.78-3.25-5.72-5.98l-3.1-8.96        c-0.78-2.24-0.72-4.7,0.15-6.9l8.29-20.93l49.09,19.44l-8.29,20.93c-0.87,2.21-2.51,4.03-4.62,5.13l-8.39,4.4        C449.59,435.35,446.84,435.58,444.32,434.77z M426.17,388.84l-6.97,17.61c-0.56,1.41-0.59,2.98-0.1,4.42l3.1,8.96        c0.61,1.75,1.94,3.14,3.66,3.83l19.14,7.58c1.72,0.68,3.65,0.58,5.29-0.28l8.39-4.4c1.35-0.71,2.39-1.87,2.95-3.28l6.97-17.61        L426.17,388.84z"
       id="path22" />
    <path
       fill="#9bd"
       d="M457.81,402.69c-11.27-3.61-22.19-8.37-32.59-14.23c-2.94-1.24-4.51-4.56-3.57-7.63        c4.11-13.46,2.17-19.3-0.75-28.14c-1.44-4.35-3.07-9.27-4.39-16.05l-0.07-0.37c-0.07-0.36-0.13-0.72-0.19-1.08l-0.05-0.31        c-0.05-0.33-0.11-0.66-0.16-0.99c-0.02-0.14-0.04-0.28-0.06-0.42c-0.05-0.35-0.1-0.71-0.14-1.06l-0.03-0.24        c-0.05-0.42-0.1-0.84-0.14-1.26l-0.04-0.4c-0.03-0.32-0.06-0.65-0.08-0.97l-0.03-0.37c-0.03-0.43-0.06-0.85-0.08-1.28        l-0.01-0.3c-0.02-0.34-0.03-0.69-0.04-1.03l-0.01-0.41c-0.01-0.38-0.01-0.77-0.01-1.15l0-0.17c0-0.43,0.01-0.87,0.02-1.3        l0.01-0.38c0.01-0.34,0.02-0.68,0.04-1.02l0.02-0.34c0.02-0.43,0.05-0.87,0.08-1.31l0.02-0.28c0.03-0.36,0.06-0.71,0.09-1.07        l0.04-0.39c0.04-0.41,0.09-0.82,0.14-1.22l0.01-0.11c0.05-0.43,0.12-0.87,0.18-1.32l0.06-0.37c0.05-0.35,0.11-0.7,0.17-1.05        l0.05-0.32c0.08-0.44,0.16-0.88,0.25-1.31l0.06-0.28c0.07-0.36,0.15-0.72,0.23-1.08l0.08-0.37c0.1-0.43,0.2-0.86,0.31-1.28        l0.01-0.04c0.11-0.45,0.23-0.89,0.36-1.33l0.1-0.36c0.1-0.35,0.21-0.71,0.31-1.06l0.09-0.3c0.14-0.43,0.28-0.87,0.42-1.31        l0.1-0.28c0.12-0.35,0.25-0.71,0.37-1.06l0.13-0.36c0.16-0.44,0.33-0.87,0.5-1.31c0.19-0.48,0.38-0.95,0.58-1.42        c0.04-0.09,0.08-0.18,0.12-0.27l0.11-0.25c0.13-0.29,0.25-0.59,0.39-0.88c0.05-0.12,0.11-0.23,0.16-0.35l0.13-0.28        c0.12-0.25,0.23-0.5,0.35-0.74c0.06-0.13,0.13-0.26,0.19-0.39l0.15-0.31c0.11-0.22,0.22-0.43,0.33-0.65        c0.07-0.14,0.14-0.28,0.22-0.41l0.14-0.26c0.12-0.22,0.23-0.44,0.35-0.66c0.08-0.14,0.16-0.29,0.24-0.43l0.13-0.22        c0.12-0.22,0.24-0.44,0.37-0.65c0.09-0.15,0.18-0.3,0.27-0.45l0.08-0.13c0.15-0.25,0.28-0.47,0.42-0.7        c0.11-0.18,0.22-0.35,0.33-0.52l0.04-0.06c0.14-0.23,0.28-0.45,0.43-0.68c0.12-0.18,0.24-0.36,0.36-0.54l0.02-0.04        c0.15-0.22,0.29-0.44,0.44-0.66c0.13-0.19,0.26-0.38,0.39-0.57c0.15-0.22,0.3-0.43,0.46-0.64c0.13-0.19,0.27-0.37,0.41-0.56        c0.16-0.21,0.31-0.42,0.47-0.63c0.14-0.18,0.28-0.37,0.42-0.55c0.16-0.21,0.32-0.41,0.48-0.61c0.14-0.18,0.29-0.36,0.43-0.54        c0.16-0.2,0.33-0.4,0.49-0.6c0.15-0.18,0.3-0.35,0.44-0.52c0.17-0.2,0.34-0.39,0.51-0.58c0.15-0.17,0.3-0.34,0.46-0.51        c0.17-0.19,0.35-0.38,0.52-0.57c0.15-0.17,0.31-0.33,0.46-0.5c0.18-0.19,0.36-0.37,0.53-0.56c0.17-0.17,0.32-0.33,0.48-0.49        c0.18-0.18,0.36-0.36,0.55-0.54l0.05-0.05c0.14-0.14,0.29-0.28,0.43-0.42c0.19-0.18,0.38-0.36,0.56-0.53l0.08-0.07        c0.14-0.13,0.27-0.26,0.41-0.38c0.17-0.15,0.34-0.31,0.51-0.46l0.18-0.16c0.13-0.11,0.25-0.23,0.38-0.34        c0.17-0.15,0.34-0.3,0.51-0.44l0.2-0.17c0.13-0.11,0.25-0.22,0.38-0.32c0.18-0.15,0.35-0.29,0.53-0.43l0.23-0.19        c0.12-0.1,0.23-0.19,0.35-0.28c0.18-0.14,0.36-0.28,0.54-0.42l0.26-0.2c0.11-0.09,0.23-0.18,0.34-0.27        c0.18-0.14,0.37-0.27,0.55-0.41l0.29-0.21c0.1-0.08,0.21-0.15,0.31-0.23c0.24-0.17,0.47-0.34,0.71-0.5l0.21-0.15        c0.08-0.06,0.16-0.11,0.24-0.17c0.39-0.27,0.79-0.53,1.19-0.79c0.06-0.04,0.12-0.08,0.18-0.12l0.11-0.07        c0.3-0.19,0.61-0.39,0.92-0.58c0.11-0.06,0.21-0.13,0.31-0.19l0.28-0.17c0.21-0.13,0.42-0.25,0.63-0.38        c0.12-0.07,0.23-0.13,0.35-0.2l0.32-0.18c0.19-0.11,0.38-0.22,0.57-0.32c0.13-0.07,0.27-0.14,0.4-0.22l0.29-0.16        c0.19-0.1,0.38-0.2,0.57-0.3c0.14-0.07,0.28-0.15,0.42-0.22l0.3-0.15c0.18-0.09,0.37-0.19,0.55-0.28        c0.16-0.08,0.32-0.15,0.48-0.23l0.22-0.11c0.2-0.09,0.39-0.19,0.59-0.28c0.16-0.07,0.32-0.15,0.48-0.22l0.19-0.09        c0.21-0.09,0.42-0.19,0.63-0.28c0.18-0.08,0.36-0.16,0.55-0.23l0.08-0.03c0.23-0.1,0.46-0.19,0.69-0.29        c0.21-0.09,0.42-0.17,0.64-0.25c0.23-0.09,0.46-0.18,0.69-0.27c0.21-0.08,0.43-0.16,0.64-0.24c0.23-0.09,0.46-0.17,0.7-0.25        c0.22-0.08,0.43-0.15,0.65-0.23c0.23-0.08,0.47-0.16,0.7-0.24c0.22-0.07,0.44-0.14,0.66-0.21c0.23-0.07,0.47-0.15,0.7-0.22        c0.22-0.07,0.44-0.13,0.66-0.2c0.24-0.07,0.47-0.14,0.71-0.2c0.22-0.06,0.45-0.12,0.67-0.18c0.24-0.06,0.47-0.12,0.71-0.18        c0.22-0.06,0.45-0.11,0.67-0.17c0.24-0.06,0.48-0.11,0.72-0.17c0.23-0.05,0.45-0.1,0.68-0.15c0.24-0.05,0.48-0.1,0.72-0.15        c0.23-0.05,0.45-0.09,0.68-0.14c0.24-0.05,0.48-0.09,0.73-0.13l0.06-0.01c0.21-0.04,0.42-0.07,0.63-0.11        c0.23-0.04,0.46-0.07,0.69-0.11l0.16-0.02c0.19-0.03,0.38-0.06,0.57-0.09c0.21-0.03,0.42-0.06,0.63-0.08l0.27-0.04        c0.17-0.02,0.35-0.05,0.52-0.07c0.2-0.02,0.41-0.05,0.61-0.07l0.32-0.03c0.17-0.02,0.33-0.04,0.5-0.05        c0.2-0.02,0.41-0.04,0.61-0.05l0.33-0.03c0.17-0.01,0.33-0.03,0.5-0.04c0.2-0.01,0.39-0.02,0.59-0.04l0.39-0.02        c0.15-0.01,0.31-0.02,0.46-0.03c0.2-0.01,0.41-0.02,0.61-0.02l0.4-0.01c0.14-0.01,0.29-0.01,0.43-0.01        c0.24-0.01,0.48-0.01,0.72-0.01l0.38,0c0.12,0,0.24,0,0.35,0c0.48,0,0.96,0.01,1.44,0.02c0.13,0,0.25,0.01,0.38,0.01l0.4,0.01        c0.23,0.01,0.45,0.02,0.68,0.03c0.15,0.01,0.3,0.02,0.46,0.03l0.4,0.03c0.2,0.01,0.4,0.02,0.6,0.04        c0.16,0.01,0.32,0.03,0.48,0.04l0.4,0.03c0.19,0.02,0.39,0.03,0.58,0.05c0.17,0.02,0.33,0.04,0.5,0.05l0.37,0.04        c0.2,0.02,0.39,0.04,0.59,0.07c0.18,0.02,0.37,0.05,0.55,0.07l0.29,0.04c0.21,0.03,0.41,0.06,0.62,0.09        c0.19,0.03,0.38,0.06,0.56,0.09l0.25,0.04c0.21,0.03,0.43,0.07,0.64,0.11c0.2,0.03,0.4,0.07,0.6,0.11l0.2,0.04        c0.22,0.04,0.44,0.08,0.66,0.13c0.23,0.05,0.46,0.09,0.69,0.14l0.03,0.01c0.25,0.05,0.49,0.1,0.74,0.16        c0.24,0.05,0.48,0.11,0.72,0.17c0.24,0.06,0.49,0.12,0.73,0.18c0.24,0.06,0.48,0.12,0.72,0.19c0.24,0.06,0.49,0.13,0.73,0.2        c0.24,0.07,0.48,0.14,0.72,0.21c0.24,0.07,0.49,0.14,0.73,0.22c0.24,0.07,0.48,0.15,0.72,0.22l0.14,0.04        c0.08,0.02,0.16,0.05,0.23,0.07c0.07,0.02,0.13,0.04,0.2,0.07l0.11,0.04c0.31,0.1,0.61,0.21,0.92,0.31        c0.22,0.08,0.43,0.15,0.65,0.23c0.3,0.11,0.59,0.22,0.89,0.33l0.11,0.04c0.18,0.07,0.36,0.14,0.54,0.21l0.23,0.09        c0.16,0.06,0.31,0.13,0.46,0.19l0.39,0.16c0.13,0.05,0.27,0.11,0.4,0.17c0.4,0.17,0.79,0.34,1.18,0.52l0.26,0.12        c28.02,12.68,42.1,44.32,32.74,73.62l-0.09,0.28c-0.13,0.39-0.26,0.78-0.39,1.17c-0.06,0.17-0.12,0.35-0.18,0.52        c-0.11,0.32-0.23,0.63-0.35,0.95c-0.08,0.21-0.16,0.43-0.25,0.65l-0.05,0.14c-0.03,0.08-0.06,0.16-0.09,0.23        c-0.04,0.1-0.08,0.2-0.12,0.3l-0.07,0.18c-0.09,0.22-0.18,0.45-0.27,0.67c-0.12,0.29-0.25,0.58-0.38,0.87l-0.06,0.13        c-0.07,0.16-0.14,0.32-0.21,0.48c-0.15,0.32-0.3,0.64-0.45,0.96l-0.07,0.15c-0.04,0.08-0.08,0.16-0.11,0.25l-0.23,0.46        c-0.18,0.36-0.35,0.72-0.54,1.07L529.8,353c-0.2,0.38-0.41,0.77-0.61,1.15l-0.17,0.31c-0.21,0.38-0.42,0.75-0.63,1.11        l-0.14,0.24c-0.19,0.32-0.38,0.65-0.58,0.97l-0.15,0.25c-0.22,0.36-0.45,0.71-0.68,1.07l-0.19,0.29        c-0.23,0.36-0.47,0.71-0.71,1.05l-0.09,0.14c-0.23,0.33-0.45,0.65-0.68,0.97l-0.2,0.28c-0.25,0.34-0.49,0.67-0.74,1l-0.2,0.26        c-0.22,0.29-0.45,0.58-0.68,0.86l-0.16,0.2c-0.26,0.32-0.52,0.64-0.79,0.96l-0.24,0.28c-0.27,0.31-0.54,0.62-0.81,0.93        l-0.17,0.19c-0.24,0.27-0.48,0.53-0.73,0.79l-0.23,0.25c-0.28,0.29-0.56,0.59-0.84,0.87l-0.26,0.26        c-0.26,0.26-0.52,0.52-0.78,0.78l-0.18,0.18c-0.28,0.27-0.56,0.54-0.85,0.8l-0.28,0.26c-0.29,0.27-0.59,0.54-0.89,0.8        l-0.25,0.22c-0.25,0.22-0.51,0.44-0.77,0.66l-0.25,0.21c-0.3,0.25-0.61,0.5-0.92,0.75l-0.31,0.25        c-0.31,0.24-0.61,0.48-0.93,0.72l-0.23,0.17c-0.17,0.13-0.34,0.26-0.52,0.39l-0.53,0.38c-5.63,4.08-10.26,6.57-14.34,8.76        c-8.24,4.42-13.68,7.34-19.87,19.88c-1.42,2.88-4.84,4.22-7.83,3.11C465.5,405.01,461.63,403.92,457.81,402.69z M419.94,335.6        l0.07,0.35c1.27,6.56,2.87,11.37,4.27,15.62c3.03,9.15,5.22,15.76,0.78,30.3c-0.41,1.34,0.29,2.8,1.59,3.31l0.11,0.05        l0.11,0.06c13.71,7.74,28.34,13.53,43.48,17.22l0.12,0.03l0.11,0.05c1.31,0.52,2.81-0.06,3.43-1.32        c6.69-13.57,12.85-16.88,21.38-21.45c3.98-2.14,8.5-4.56,13.94-8.5l0.5-0.37c0.16-0.12,0.33-0.24,0.49-0.36l0.21-0.16        c0.29-0.22,0.58-0.45,0.87-0.68l0.29-0.23c0.29-0.23,0.58-0.47,0.86-0.7l0.23-0.2c0.24-0.2,0.48-0.41,0.72-0.62l0.24-0.21        c0.28-0.25,0.56-0.5,0.84-0.75l0.26-0.24c0.27-0.25,0.53-0.5,0.8-0.75l0.17-0.17c0.25-0.24,0.49-0.48,0.74-0.73l0.24-0.24        c0.26-0.27,0.53-0.54,0.79-0.82l0.22-0.23c0.23-0.25,0.46-0.49,0.68-0.75l0.16-0.18c0.26-0.29,0.51-0.58,0.76-0.88l0.22-0.26        c0.25-0.3,0.5-0.6,0.74-0.9l0.15-0.19c0.21-0.27,0.43-0.54,0.64-0.81l0.18-0.24c0.24-0.31,0.47-0.62,0.7-0.94l0.19-0.26        c0.22-0.3,0.43-0.6,0.64-0.91l0.09-0.13c0.22-0.32,0.44-0.65,0.66-0.99l0.18-0.27c0.22-0.33,0.43-0.67,0.64-1.01l0.14-0.23        c0.18-0.3,0.37-0.6,0.55-0.91l0.13-0.22c0.2-0.35,0.4-0.7,0.59-1.05l0.16-0.29c0.2-0.36,0.39-0.72,0.58-1.08l0.08-0.15        c0.17-0.33,0.34-0.67,0.51-1.01l0.21-0.43c0.03-0.06,0.06-0.12,0.09-0.19l0.09-0.19c0.14-0.3,0.28-0.6,0.42-0.91        c0.07-0.15,0.13-0.3,0.2-0.45l0.06-0.13c0.12-0.27,0.24-0.55,0.35-0.82c0.09-0.21,0.17-0.42,0.26-0.63l0.09-0.21        c0.03-0.08,0.07-0.16,0.1-0.24c0.02-0.06,0.04-0.12,0.07-0.17l0.07-0.18c0.08-0.2,0.16-0.4,0.23-0.61        c0.11-0.3,0.22-0.59,0.33-0.89c0.06-0.16,0.12-0.33,0.17-0.49c0.13-0.37,0.25-0.73,0.37-1.1l0.09-0.27        c8.8-27.56-4.45-57.34-30.81-69.27l-0.25-0.11c-0.37-0.17-0.74-0.33-1.12-0.49c-0.12-0.05-0.24-0.1-0.36-0.15l-0.42-0.17        c-0.13-0.06-0.27-0.11-0.41-0.17l-0.22-0.08c-0.17-0.07-0.33-0.13-0.5-0.19l-0.11-0.04c-0.28-0.11-0.56-0.21-0.83-0.31        c-0.2-0.07-0.4-0.14-0.61-0.21c-0.29-0.1-0.58-0.2-0.87-0.3l-0.29-0.1c-0.06-0.02-0.12-0.04-0.18-0.06l-0.17-0.05        c-0.23-0.07-0.45-0.14-0.68-0.21c-0.23-0.07-0.46-0.14-0.69-0.2c-0.23-0.07-0.45-0.13-0.68-0.19        c-0.23-0.06-0.46-0.12-0.69-0.19c-0.23-0.06-0.45-0.12-0.68-0.18c-0.23-0.06-0.46-0.11-0.69-0.17        c-0.23-0.05-0.45-0.11-0.68-0.16c-0.23-0.05-0.46-0.1-0.69-0.15l-0.03-0.01c-0.22-0.05-0.43-0.09-0.65-0.13        c-0.2-0.04-0.41-0.08-0.61-0.12l-0.21-0.04c-0.18-0.03-0.37-0.07-0.55-0.1c-0.2-0.03-0.4-0.07-0.6-0.1l-0.26-0.04        c-0.17-0.03-0.35-0.06-0.52-0.08c-0.19-0.03-0.38-0.05-0.57-0.08l-0.29-0.04c-0.17-0.02-0.34-0.05-0.51-0.07        c-0.18-0.02-0.36-0.04-0.54-0.06l-0.38-0.04c-0.15-0.02-0.3-0.03-0.45-0.05c-0.18-0.02-0.36-0.03-0.53-0.05l-0.42-0.04        c-0.14-0.01-0.28-0.03-0.42-0.04c-0.18-0.01-0.36-0.02-0.55-0.04l-0.42-0.03c-0.13-0.01-0.27-0.02-0.4-0.02        c-0.21-0.01-0.42-0.02-0.63-0.02l-0.42-0.02c-0.11,0-0.22-0.01-0.32-0.01c-0.45-0.01-0.9-0.02-1.35-0.02c-0.1,0-0.2,0-0.3,0        l-0.41,0c-0.22,0-0.44,0-0.66,0.01c-0.13,0-0.25,0.01-0.38,0.01l-0.42,0.01c-0.19,0.01-0.37,0.01-0.56,0.02        c-0.14,0.01-0.28,0.01-0.41,0.02l-0.4,0.02c-0.18,0.01-0.36,0.02-0.54,0.03c-0.15,0.01-0.3,0.02-0.45,0.04l-0.35,0.03        c-0.19,0.02-0.37,0.03-0.56,0.05c-0.15,0.01-0.3,0.03-0.45,0.05l-0.33,0.03c-0.19,0.02-0.38,0.04-0.57,0.06        c-0.16,0.02-0.32,0.04-0.48,0.06l-0.28,0.04c-0.2,0.03-0.39,0.05-0.59,0.08c-0.18,0.03-0.35,0.05-0.53,0.08l-0.16,0.02        c-0.22,0.03-0.43,0.07-0.65,0.1c-0.2,0.03-0.39,0.07-0.59,0.1l-0.06,0.01c-0.23,0.04-0.46,0.08-0.68,0.13        c-0.21,0.04-0.43,0.08-0.64,0.13c-0.23,0.05-0.45,0.09-0.68,0.14c-0.21,0.05-0.43,0.09-0.64,0.14        c-0.23,0.05-0.45,0.1-0.68,0.16c-0.21,0.05-0.42,0.1-0.63,0.16c-0.22,0.06-0.45,0.11-0.67,0.17        c-0.21,0.06-0.42,0.11-0.63,0.17c-0.22,0.06-0.44,0.12-0.67,0.19c-0.21,0.06-0.42,0.12-0.62,0.19        c-0.22,0.07-0.44,0.14-0.66,0.21c-0.21,0.07-0.41,0.13-0.62,0.2c-0.22,0.07-0.44,0.15-0.66,0.22        c-0.21,0.07-0.41,0.14-0.61,0.21c-0.22,0.08-0.44,0.16-0.65,0.24c-0.2,0.07-0.41,0.15-0.61,0.23        c-0.22,0.08-0.43,0.17-0.65,0.25c-0.2,0.08-0.4,0.16-0.6,0.24c-0.22,0.09-0.43,0.18-0.65,0.27l-0.08,0.03        c-0.17,0.07-0.34,0.14-0.51,0.22c-0.2,0.09-0.39,0.17-0.59,0.26l-0.19,0.09c-0.15,0.07-0.3,0.13-0.44,0.2        c-0.18,0.08-0.36,0.17-0.55,0.26l-0.23,0.11c-0.15,0.07-0.29,0.14-0.44,0.21c-0.17,0.08-0.34,0.17-0.51,0.26l-0.3,0.15        c-0.13,0.07-0.26,0.13-0.38,0.2c-0.18,0.09-0.35,0.19-0.52,0.28l-0.3,0.16c-0.12,0.06-0.24,0.13-0.36,0.19        c-0.18,0.1-0.35,0.2-0.53,0.3l-0.33,0.19c-0.1,0.06-0.21,0.12-0.31,0.18c-0.19,0.11-0.39,0.23-0.58,0.35l-0.3,0.18        c-0.09,0.05-0.18,0.11-0.27,0.16c-0.29,0.18-0.58,0.36-0.86,0.55l-0.27,0.17c-0.38,0.24-0.75,0.49-1.12,0.74        c-0.07,0.05-0.13,0.09-0.2,0.14l-0.24,0.17c-0.22,0.16-0.45,0.31-0.67,0.47c-0.09,0.07-0.18,0.13-0.27,0.2l-0.3,0.22        c-0.17,0.13-0.34,0.25-0.51,0.38c-0.1,0.08-0.2,0.16-0.3,0.23l-0.27,0.21c-0.17,0.13-0.33,0.25-0.49,0.38        c-0.11,0.08-0.21,0.17-0.32,0.26l-0.24,0.2c-0.16,0.13-0.33,0.27-0.49,0.4c-0.12,0.1-0.23,0.2-0.35,0.29l-0.2,0.17        c-0.16,0.14-0.32,0.27-0.48,0.41c-0.12,0.1-0.23,0.21-0.35,0.31l-0.19,0.17c-0.16,0.14-0.32,0.28-0.47,0.43        c-0.13,0.12-0.26,0.24-0.38,0.36l-0.08,0.07c-0.18,0.17-0.35,0.33-0.53,0.5c-0.14,0.13-0.27,0.26-0.41,0.4l-0.05,0.05        c-0.17,0.17-0.34,0.34-0.51,0.51c-0.15,0.15-0.29,0.3-0.44,0.45c-0.18,0.19-0.35,0.36-0.51,0.54        c-0.15,0.15-0.29,0.31-0.44,0.47c-0.16,0.18-0.33,0.36-0.49,0.54c-0.14,0.16-0.29,0.32-0.43,0.48        c-0.16,0.18-0.32,0.36-0.48,0.55c-0.14,0.16-0.28,0.33-0.42,0.49c-0.16,0.19-0.31,0.37-0.46,0.56        c-0.14,0.17-0.27,0.33-0.41,0.5c-0.15,0.19-0.3,0.38-0.45,0.58c-0.13,0.17-0.26,0.34-0.39,0.51        c-0.15,0.19-0.29,0.39-0.44,0.59c-0.13,0.17-0.26,0.35-0.38,0.52c-0.14,0.2-0.29,0.4-0.43,0.6c-0.12,0.18-0.25,0.35-0.37,0.53        c-0.14,0.2-0.28,0.41-0.42,0.62l-0.02,0.03c-0.11,0.17-0.22,0.34-0.33,0.5c-0.14,0.21-0.27,0.42-0.4,0.64l-0.04,0.06        c-0.1,0.16-0.2,0.32-0.3,0.49c-0.13,0.21-0.25,0.42-0.38,0.63l-0.1,0.16c-0.08,0.14-0.16,0.28-0.25,0.41        c-0.12,0.2-0.23,0.4-0.34,0.61l-0.13,0.23c-0.07,0.13-0.15,0.26-0.22,0.39c-0.11,0.2-0.22,0.41-0.33,0.62l-0.14,0.27        c-0.07,0.12-0.13,0.25-0.2,0.37c-0.1,0.2-0.2,0.4-0.3,0.6l-0.16,0.32c-0.06,0.11-0.12,0.23-0.17,0.34        c-0.11,0.23-0.22,0.46-0.33,0.69l-0.14,0.3c-0.05,0.1-0.1,0.2-0.14,0.3c-0.12,0.27-0.24,0.55-0.36,0.82l-0.12,0.28        c-0.03,0.07-0.06,0.15-0.1,0.22c-0.19,0.44-0.37,0.89-0.55,1.34c-0.16,0.41-0.32,0.82-0.47,1.23l-0.12,0.34        c-0.12,0.33-0.24,0.67-0.35,1l-0.09,0.27c-0.14,0.41-0.27,0.82-0.4,1.23l-0.08,0.28c-0.1,0.33-0.2,0.67-0.3,1l-0.1,0.34        c-0.12,0.41-0.23,0.83-0.34,1.24l-0.01,0.03c-0.1,0.41-0.2,0.81-0.3,1.22l-0.08,0.35c-0.08,0.34-0.15,0.68-0.22,1.01        l-0.05,0.26c-0.08,0.41-0.16,0.82-0.23,1.24l-0.05,0.3c-0.06,0.33-0.11,0.66-0.16,0.99l-0.05,0.35        c-0.06,0.41-0.12,0.83-0.17,1.24l-0.01,0.1c-0.05,0.38-0.09,0.77-0.13,1.15l-0.04,0.36c-0.03,0.34-0.06,0.67-0.09,1.01        l-0.02,0.26c-0.03,0.41-0.06,0.82-0.08,1.23l-0.01,0.32c-0.02,0.32-0.03,0.64-0.04,0.96l-0.01,0.36        c-0.01,0.41-0.02,0.81-0.02,1.22l0,0.16c0,0.36,0,0.72,0.01,1.08l0.01,0.38c0.01,0.32,0.02,0.65,0.03,0.97l0.01,0.28        c0.02,0.4,0.04,0.8,0.07,1.2l0.03,0.35c0.02,0.3,0.05,0.61,0.08,0.91l0.04,0.38c0.04,0.39,0.08,0.79,0.13,1.19l0.03,0.22        c0.04,0.33,0.09,0.66,0.13,1c0.02,0.13,0.04,0.26,0.06,0.4c0.05,0.31,0.1,0.62,0.15,0.93l0.05,0.29        C419.81,334.92,419.88,335.26,419.94,335.6z"
       id="path24" />
    <path
       fill="#9bd"
       d="M456.76,400.73l-3.32-1.32c0.05-0.13,5.39-13.54,12.07-27.34c3.93-8.13,7.56-14.82,10.77-19.88        c0.16-0.25,0.32-0.5,0.48-0.75c-3.87-1.05-8.51-2.86-14.05-5.8c-1.44-0.76-2.77-1.52-3.99-2.26        c-0.38,2.44-0.99,5.07-1.85,7.86c-11.26,36.59-14.22,43.67-14.34,43.95l-3.29-1.4c0.03-0.07,3.06-7.38,14.21-43.61        c1.05-3.42,1.66-6.41,1.94-8.99c-8.22-5.83-10.03-10.91-8.61-14.07c1-2.21,3.55-3.12,6.08-2.17c2.76,1.04,4.86,3.94,5.77,7.94        c0.44,1.95,0.61,4.13,0.5,6.51c1.52,0.99,3.26,2.02,5.26,3.08c5.75,3.04,10.58,4.87,14.53,5.81c3.09-4.29,5.77-6.86,8.13-7.82        c3.97-1.62,6.75-0.29,8.02,1.49c1.52,2.13,1.24,5.05-0.69,7.26c-1.22,1.4-5.03,4.49-13.86,3.04        c-3.01,4.48-6.87,11.22-11.77,21.35C462.11,387.3,456.81,400.6,456.76,400.73z M491.29,343.44c-0.74-0.24-1.76-0.13-2.9,0.34        c-1.1,0.45-2.87,1.75-5.54,5.2c4.53,0.46,7.43-0.52,8.82-2.11c0.95-1.09,0.92-2.2,0.47-2.83        C491.94,343.76,491.65,343.56,491.29,343.44z M451.46,328.26c-0.54-0.17-1.2-0.18-1.43,0.34c-0.52,1.15,0.55,4.21,5.5,8.21        c-0.25-5.08-2.09-7.81-3.95-8.51C451.55,328.29,451.51,328.28,451.46,328.26z"
       id="path26" />
    <rect
       width="3.58"
       height="49.6"
       x="443.15"
       y="378.63"
       fill="#9bd"
       transform="rotate(-61.269 444.91 403.418)"
       id="rect28" />
    <rect
       width="3.58"
       height="49.6"
       x="441.28"
       y="383.34"
       fill="#9bd"
       transform="rotate(-61.269 443.045 408.13)"
       id="rect30" />
    <rect
       width="3.58"
       height="49.6"
       x="439.42"
       y="388.05"
       fill="#9bd"
       transform="rotate(-61.269 441.177 412.842)"
       id="rect32" />
    <rect
       width="3.58"
       height="47.27"
       x="436.53"
       y="393.37"
       fill="#9bd"
       transform="rotate(-61.269 438.29 416.994)"
       id="rect34" />
    <rect
       width="3.58"
       height="18.97"
       x="547.27"
       y="344.43"
       fill="#9bd"
       transform="rotate(-68.389 549.073 353.92)"
       id="rect36" />
    <rect
       width="18.97"
       height="3.58"
       x="544.25"
       y="311.73"
       fill="#9bd"
       transform="rotate(-8.389 553.63 313.462)"
       id="rect38" />
    <rect
       width="18.97"
       height="3.58"
       x="528.11"
       y="274.4"
       fill="#9bd"
       transform="rotate(-38.39 537.603 276.198)"
       id="rect40" />
    <rect
       width="18.97"
       height="3.58"
       x="495.46"
       y="250.15"
       fill="#9bd"
       transform="rotate(-68.389 504.968 251.937)"
       id="rect42" />
    <rect
       width="3.58"
       height="18.97"
       x="462.76"
       y="237.77"
       fill="#9bd"
       transform="rotate(-8.389 464.584 247.267)"
       id="rect44" />
    <rect
       width="3.58"
       height="18.97"
       x="425.43"
       y="253.91"
       fill="#9bd"
       transform="rotate(-38.39 427.229 263.408)"
       id="rect46" />
    <rect
       width="3.58"
       height="18.97"
       x="401.18"
       y="286.56"
       fill="#9bd"
       transform="rotate(-68.389 402.982 296.05)"
       id="rect48" />
  </g>
  <g
     id="g436">
    <polygon
       fill="#e5bd83"
       points="432.54 432.58 457.74 587.9 445.05 578.73 420.04 423.54 425 427.12"
       id="polygon52" />
    <path
       fill="#c9a16b"
       d="M445.05,578.73l12.69,9.17c-58.07-0.36-101.85,19.88-101.85,19.88l-21.95,3.54      c-34.89-9.39-101.44,13.04-101.44,13.04l9.3-12.87c0,0,66.45-22.43,102.34-11.94C374.92,578.32,445.05,578.73,445.05,578.73z"
       id="path54" />
    <path
       fill="#fae0b2"
       d="M420.04 423.54l25.01 155.19c0 0-70.13-.42-100.91 20.81L321.3 457.8C321.3 457.8 356.16 420.49 420.04 423.54zM321.3 457.8l22.84 141.75c-35.89-10.49-102.34 11.94-102.34 11.94L216.8 456.29C276.49 433.32 321.3 457.8 321.3 457.8z"
       id="path56" />
    <path
       fill="#8f3c7d"
       d="M445.12,423.88l27.54,170.92c0,0-71.84-0.95-115.85,18.67l-23.58,3.8      c-50.31-6.91-112.59,18.14-112.59,18.14L193.1,464.49l20.12-3.24l-6.3,8.73l25.59,154.38c0,0,66.56-22.43,101.44-13.04      l21.95-3.54c0,0,43.78-20.24,101.85-19.88l-25.2-155.32l-7.54-5.46L445.12,423.88z"
       id="path58" />
    <polygon
       fill="#e5bd83"
       points="216.8 456.29 241.81 611.49 232.51 624.36 206.91 469.97 213.22 461.25"
       id="polygon60" />
    <path
       fill="#b28856"
       d="M272.27 609.31c3.76-1.25 7.62-2.15 11.51-2.91 3.89-.77 7.82-1.3 11.77-1.68 1.97-.2 3.95-.3 5.93-.42 1.98-.03 3.96-.16 5.95-.08 3.96 0 7.92.31 11.85.81-1.98.04-3.95-.08-5.93 0-1.97 0-3.94.02-5.91.13-3.93.15-7.86.39-11.78.78-3.92.34-7.83.84-11.73 1.39C280.03 607.88 276.15 608.54 272.27 609.31zM344.74 603.74c-1.64-.31-3.28-.59-4.94-.79-1.65-.24-3.3-.43-4.95-.59-3.31-.31-6.62-.57-9.94-.72-3.32-.16-6.64-.23-9.97-.27-3.33-.04-6.66.04-10.01.03 1.65-.24 3.32-.43 4.98-.62 1.67-.11 3.34-.27 5.01-.34 3.34-.18 6.7-.15 10.05-.01 3.35.19 6.69.47 10 1.01C338.27 601.97 341.57 602.63 344.74 603.74zM451.5 583.97l-10.32.69-10.3.73-20.6 1.58c1.69-.36 3.39-.67 5.09-.97 1.71-.27 3.41-.53 5.12-.76 3.42-.48 6.86-.8 10.3-1.07 3.44-.24 6.89-.42 10.35-.45C444.6 583.69 448.05 583.71 451.5 583.97zM411.42 583.72c-3.93.49-7.82 1.08-11.7 1.78-3.88.7-7.74 1.46-11.57 2.37-3.84.86-7.64 1.87-11.43 2.96-1.9.52-3.78 1.12-5.65 1.74-1.9.55-3.73 1.28-5.63 1.86 3.57-1.71 7.23-3.24 10.99-4.49 1.86-.69 3.78-1.2 5.67-1.79 1.92-.5 3.83-1.03 5.76-1.46 3.87-.88 7.77-1.62 11.7-2.1C403.51 584.07 407.46 583.71 411.42 583.72zM344.64 608.13c2.65-2.05 5.58-3.71 8.55-5.26 2.97-1.55 6.06-2.87 9.18-4.1 3.14-1.18 6.31-2.27 9.54-3.14 1.61-.46 3.24-.83 4.86-1.25 1.64-.34 3.28-.69 4.92-.97-3.17 1.06-6.36 2.03-9.51 3.12-3.15 1.08-6.28 2.19-9.38 3.39-3.1 1.19-6.17 2.47-9.21 3.81-1.52.67-3.03 1.37-4.52 2.12C347.57 606.54 346.1 607.32 344.64 608.13zM238.86 616.51c3.19-1.33 6.47-2.44 9.76-3.48 3.29-1.05 6.62-1.97 9.97-2.82 3.35-.83 6.72-1.61 10.12-2.22 1.7-.32 3.4-.61 5.1-.89 1.71-.25 3.42-.49 5.14-.68l-20.06 4.97-10.01 2.54L238.86 616.51z"
       id="path62" />
    <path
       fill="#184655"
       d="M289.39,625.7c2.07-6.48,1.26-13.87-2.18-19.73c5.19-0.57,10.38-1.15,15.57-1.72     c3.43,5.87,4.25,13.26,2.18,19.73c-2.03-1.48-4.28-3.02-6.73-4.58C295.5,621.53,292.55,623.65,289.39,625.7z"
       id="path64" />
    <rect
       width="22.23"
       height="5.76"
       x="334.27"
       y="609.51"
       fill="#701c60"
       transform="rotate(-9.154 345.297 612.266)"
       id="rect66" />
    <path
       fill="#f7cc7f"
       d="M321.3,457.8c2.65,11.69,4.94,23.44,7.11,35.21c1.12,5.88,2.11,11.78,3.16,17.67l2.95,17.7l2.76,17.73     c0.85,5.92,1.77,11.83,2.55,17.77c1.64,11.85,3.15,23.73,4.3,35.66c-2.65-11.69-4.95-23.44-7.12-35.21     c-1.12-5.88-2.1-11.78-3.16-17.67l-2.95-17.7l-2.76-17.73c-0.85-5.92-1.77-11.83-2.55-17.77     C323.97,481.61,322.46,469.73,321.3,457.8z"
       id="path68" />
    <rect
       width="140.77"
       height="10.81"
       x="421.38"
       y="756.16"
       fill="#fec65e"
       id="rect70" />
    <polygon
       fill="#fe875e"
       points="492.12 741.47 422.09 756.16 562.15 756.16"
       id="polygon72" />
    <rect
       width="28.46"
       height="12.31"
       x="477.89"
       y="731.39"
       fill="#fec65e"
       id="rect74" />
    <rect
       width="28.46"
       height="12.31"
       x="477.9"
       y="706.75"
       fill="#fec65e"
       id="rect76" />
    <rect
       width="16.73"
       height="12.31"
       x="483.76"
       y="719.08"
       fill="#fe875e"
       id="rect78" />
    <path
       fill="#fae0b2"
       d="M466.56 685.32l-5.44-2.39c-1.03-.45-2.23.01-2.68 1.04l-8.14 18.49c-.45 1.03.01 2.23 1.04 2.68l5.44 2.39c1.03.45 2.23-.01 2.68-1.04L467.6 688C468.05 686.98 467.59 685.78 466.56 685.32zM537.63 523.84l-5.44-2.39c-1.03-.45-1.49-1.65-1.04-2.68l8.14-18.49c.45-1.03 1.65-1.49 2.68-1.04l5.44 2.39c1.03.45 1.49 1.65 1.04 2.68l-8.14 18.49C539.85 523.83 538.66 524.3 537.63 523.84z"
       id="path80" />
    <path
       fill="#fec65e"
       d="M489.89,708.66c-14.97,0-29.91-3.11-44.03-9.33c-1.68-0.74-2.45-2.71-1.71-4.39      c0.74-1.68,2.71-2.45,4.39-1.71c25.11,11.05,53.02,11.66,78.59,1.72c25.57-9.94,45.74-29.25,56.79-54.36      c22.82-51.84-0.8-112.57-52.64-135.39c-1.68-0.74-2.45-2.71-1.71-4.39c0.74-1.68,2.71-2.45,4.39-1.71      c55.2,24.29,80.34,88.97,56.05,144.17c-11.77,26.74-33.25,47.3-60.48,57.88C516.7,706.17,503.28,708.66,489.89,708.66z"
       id="path82" />
    <path
       fill="#466eb6"
       d="M418.54 651.29c.28 5.5 0 15.22 0 15.22l-.02.02c-18.2-17.53-29.53-42.12-29.53-69.38 0-2.64.11-5.26.32-7.84h.02c0 .56.13 4.44 3.68 7.84 3.83 3.66 5.48 5.02 8.23 6.54 2.75 1.52 10.97 6.45 10.97 6.45s1.67.54 6.32 6.58c4.65 6.04 9.05 8.25 10.15 11.54 1.1 3.29 3.29 6.3 3.29 6.3s-8.23 11.26-9.87 12.36C420.47 648 418.28 645.81 418.54 651.29zM519.78 680.38c1.06 5.69 3.55 5.09 3.87 4.98v.02c-11.78 5.13-24.78 7.99-38.44 7.99 0 0 3.29-4.76 5.95-10.24 2.64-5.5-.45-3.85-1.56-14.83s0 0 .69-1.65c.71-1.65 1.49-6.58 0-10.97-1.36-4.03-.24-3.44-.02-3.31-.63-.56-10.65-9.48-13.85-14.72-1.21-2.01-1.84-3.01-2.12-3.42.13-1.06.48-4.33.48-6.54 0-2.19-6.02-1.08-7.66-1.08-1.67 0-8.25 1.65-12.68 2.19-4.46.54-7.08 11.52-7.08 8.23 0-3.29-2.75-2.19-3.85-2.47-1.08-.26-2.73-3.57-3.83-6.3-1.1-2.75-2.75-1.65-4.94-4.39-2.21-2.75-3.85-3.85-6.04-9.89-2.21-6.02-3.85-3.83-8.23-12.62-4.39-8.77 0 0 1.08-4.2 1.1-4.2 2.75-2.38 6.65-5.67 3.87-3.29 5.43-1.1 5.43-1.1s3.83 2.75 6.04 6.78c2.19 4.03 9.33 3.12 9.33 3.12s0 0-1.65-4.94c-.39-1.15-.58-1.77-.69-2.08l-.09-.28c-.06-.19-.17-.48-.32-.95-1.1-3.29-7.68-11.52-2.19-17.55 5.48-6.04 5.48-3.83 9.33-9.87 3.83-6.04 7.68-4.39 12.06-3.85 4.39.56 3.31.56 10.43 0 7.14-.54 8.23-.54 10.43-8.23 2.19-7.68 0 0-1.1-7.14-1.1-7.12 0-6.02 0-12.12 0-6.1-2.75-.5-6.58 0-3.85.48-4.94.61-7.14 2.25-2.19 1.65-5.48 6.04-9.87 7.14-4.39 1.08-2.75 0-8.79-2.23-6.04-2.23 0-5.45 1.1-10.39 1.1-4.96 5.32 0 5.32 0s1.82-2.21 5.11-4.39c3.29-2.21 5.48-1.1 10.97-4.46 5.48-3.36 2.19 1.71 9.87 0 7.68-1.71 4.39-3.59 4.39-3.59v-3.57c0 0-5.5.65-10.43.09-4.94-.54-13.72 1.1-21.39 4.7-7.68 3.59-4.96 2.45-7.14.87-2.19-1.58-14.83-.61-22.45 0 15.95-11.78 35.67-18.72 57.02-18.72 26.23 0 50.02 10.48 67.36 27.51-1.26-1.06-13.03 3.25-14.14 6.52-1.08 3.29.56 4.39-3.29 8.23-3.83 3.85-3.83 3.85-12.62 7.14-8.79 3.29-7.68-1.65-12.62 6.04-4.94 7.66-6.04 9.31-4.94 13.16 1.1 3.83-.56 10.43 7.12 8.23 7.68-2.19 4.96-9.33 13.18-6.58s15.78 3.29 15.78 3.29-2.86-8.23 0-9.87c2.88-1.65 8.12 1.08 11.54 3.83 3.42 2.75 3.42 2.21 5.61 5.5 2.19 3.29 4.39 4.72 6.04 4.26 1.65-.43 7.68-9.2 7.68-9.2l3.55-5.24c3.1 8.38 5.07 17.32 5.71 26.6h-.02c-5.95-3.81-7.06-3.27-16.39-3.27-9.33 0-10.43 2.14-18.66-.02-8.23-2.16-7.68-3.81-17.55-3.27-9.87.54-8.23-1.23-14.26 3.23-6.04 4.46-9.33-.11-10.97 10.13-1.65 10.24-4.39 8.59 0 17.38 4.39 8.77 4.39 7.12 8.77 15.91 4.39 8.79 7.68 1.65 6.04 14.26-1.65 12.62-1.65 14.83-1.65 17.01 0 2.21-1.1 8.79-1.1 11.54C515.38 675.99 518.65 674.26 519.78 680.38zM519.24 543.73v-8.77c-3.29 0 1.65-3.85-3.29 0-4.94 3.83-6.58 8.23-7.68 9.87s-3.68 2.75-3.68 2.75L519.24 543.73z"
       id="path84" />
    <path
       fill="#50bfa5"
       d="M490.3 666.66c-.69 1.65-1.8-9.33-.69 1.65s4.2 9.33 1.56 14.83c-2.66 5.48-5.95 10.24-5.95 10.24-25.91 0-49.4-10.22-66.69-26.84l.02-.02c0 0 .28-9.72 0-15.22-.26-5.48 1.93-3.29 3.57-4.37 1.65-1.1 9.87-12.36 9.87-12.36s-2.19-3.01-3.29-6.3c-1.1-3.29-5.5-5.5-10.15-11.54-4.65-6.04-6.32-6.58-6.32-6.58s-8.23-4.94-10.97-6.45c-2.75-1.52-4.39-2.88-8.23-6.54-3.55-3.4-3.68-7.27-3.68-7.84h-.02c2.29-28.57 17.08-53.62 38.88-69.66 7.62-.61 20.26-1.58 22.45 0 2.19 1.58-.54 2.73 7.14-.87 7.66-3.59 16.45-5.24 21.39-4.7 4.94.56 10.43-.09 10.43-.09v3.57c0 0 3.29 1.88-4.39 3.59-7.68 1.71-4.39-3.36-9.87 0-5.5 3.36-7.68 2.25-10.97 4.46-3.29 2.19-5.11 4.39-5.11 4.39s-4.22-4.96-5.32 0c-1.1 4.94-7.14 8.16-1.1 10.39 6.04 2.23 4.39 3.31 8.79 2.23 4.39-1.1 7.68-5.5 9.87-7.14 2.21-1.65 3.29-1.77 7.14-2.25 3.83-.5 6.58-6.1 6.58 0 0 6.1-1.1 5 0 12.12 1.1 7.14 3.29-.54 1.1 7.14-2.21 7.68-3.29 7.68-10.43 8.23-7.12.56-6.04.56-10.43 0-4.37-.54-8.23-2.19-12.06 3.85-3.85 6.04-3.85 3.83-9.33 9.87-5.5 6.04 1.08 14.26 2.19 17.55.15.48.26.76.32.95l.09.28c.11.3.3.93.69 2.08 1.65 4.94 1.65 4.94 1.65 4.94s-7.14.91-9.33-3.12c-2.21-4.03-6.04-6.78-6.04-6.78s-1.56-2.19-5.43 1.1c-3.9 3.29-5.54 1.47-6.65 5.67-1.08 4.2-5.48-4.57-1.08 4.2 4.37 8.79 6.02 6.6 8.23 12.62 2.19 6.04 3.83 7.14 6.04 9.89 2.19 2.75 3.83 1.65 4.94 4.39 1.1 2.73 2.75 6.04 3.83 6.3 1.1.28 3.85-.82 3.85 2.47 0 3.29 2.62-7.68 7.08-8.23 4.44-.54 11.02-2.19 12.68-2.19 1.65 0 7.66-1.1 7.66 1.08 0 2.21-.35 5.48-.48 6.54-.15-.22-.22-.28-.24-.26 0 .09.17.48.17.58.02-.02.04-.15.07-.32.28.41.91 1.41 2.12 3.42 3.2 5.24 13.23 14.16 13.85 14.72-.22-.13-1.34-.71.02 3.31C491.79 660.08 491.01 665.01 490.3 666.66zM523.65 685.36c-.32.11-2.81.71-3.87-4.98-1.13-6.13-4.39-4.39-4.39-7.12 0-2.75 1.1-9.33 1.1-11.54 0-2.19 0-4.39 1.65-17.01 1.65-12.62-1.65-5.48-6.04-14.26-4.37-8.79-4.37-7.14-8.77-15.91-4.39-8.79-1.65-7.14 0-17.38 1.65-10.24 4.94-5.67 10.97-10.13 6.04-4.46 4.39-2.68 14.26-3.23 9.87-.54 9.33 1.1 17.55 3.27 8.23 2.16 9.33.02 18.66.02 9.33 0 10.43-.54 16.39 3.27h.02c.15 2.25.24 4.5.24 6.8 0 39.48-23.77 73.4-57.77 88.23V685.36zM515.95 534.97c4.94-3.85 0 0 3.29 0v8.77l-14.65 3.85c0 0 2.58-1.1 3.68-2.75S511.01 538.8 515.95 534.97zM575.47 563.73v.02l-3.55 5.24c0 0-6.04 8.77-7.68 9.2-1.65.45-3.85-.97-6.04-4.26-2.19-3.29-2.19-2.75-5.61-5.5-3.42-2.75-8.66-5.48-11.54-3.83-2.86 1.65 0 9.87 0 9.87s-7.55-.54-15.78-3.29-5.5 4.39-13.18 6.58c-7.68 2.21-6.02-4.39-7.12-8.23-1.1-3.85 0-5.5 4.94-13.16 4.94-7.68 3.83-2.75 12.62-6.04 8.79-3.29 8.79-3.29 12.62-7.14 3.85-3.83 2.21-4.94 3.29-8.23 1.1-3.27 12.88-7.58 14.14-6.52 0 .02.02.02.02.02C562.62 538.32 570.5 550.31 575.47 563.73z"
       id="path86" />
    <g
       id="g274">
      <path
         fill="#fae0b2"
         d="M268.85,746.7c0,0,2.74,8.95-0.11,19.94l-9.55-0.8l-27.14-2.07v-0.01c0,0,0.82-4.34,0.82-9.41       c0-4.67-0.82-9.42-0.82-9.42l26.75,1.27L268.85,746.7z"
         id="path88" />
      <path
         fill="#f79c8d"
         d="M271.71,742.51c0,0,5.31,12.36,0,28.35l-40.38-2.66c-0.87-0.06-1.55-1.09-1.52-2.32       c0.04-1.21,0.75-2.15,1.6-2.15c0.03,0,0.04,0,0.07,0l0.57,0.04l27.14,2.07l9.55,0.8c2.85-10.99,0.11-19.94,0.11-19.94       l-10.05-0.51l-26.75-1.27l-0.65-0.04c-0.86-0.04-1.54-1.03-1.54-2.23c0-1.22,0.72-2.23,1.58-2.23c0.03,0,0.04,0,0.07,0       L271.71,742.51z"
         id="path90" />
      <polygon
         fill="#f47458"
         points="392.15 738.64 388.29 738.64 271.71 742.51 231.52 740.42 348.83 738.09"
         id="polygon92" />
      <path
         fill="#f47458"
         d="M392.15,738.64c0,0,5.61,16.57,0.63,28.88h-4.48l-116.58,3.34c5.31-15.99,0-28.35,0-28.35l116.58-3.87       H392.15z"
         id="path94" />
      <path
         fill="#e5bd83"
         d="M269.47 752.38c-4.21.2-8.39.06-12.57-.15-4.18-.25-8.36-.58-12.51-1.24 4.21-.2 8.39-.06 12.57.15C261.14 751.39 265.31 751.72 269.47 752.38zM248.02 759.09c-2.34.21-4.65.09-6.96-.11-2.3-.23-4.59-.55-6.86-1.2 2.34-.21 4.66-.09 6.96.11C243.47 758.13 245.76 758.44 248.02 759.09z"
         id="path96" />
      <path
         fill="#f8c558"
         d="M251.11 762.59c-1.74-2.69-1.41-8.82.6-11.31 3.53.19 7.06.37 10.59.56-2.01 2.49-2.33 8.62-.6 11.31-2.18-.84-4.29-1.9-6.25-3.09C253.89 761.05 252.46 761.93 251.11 762.59zM281.56 770.54c4.99-12.3-.61-28.36-.61-28.36h10.9c0 0 5.61 16.05.61 28.36H281.56zM373.13 768.05c4.99-12.3-.61-28.36-.61-28.36h10.9c0 0 5.61 16.05.61 28.36H373.13z"
         id="path98" />
      <path
         fill="#fae0b2"
         d="M344.58,718.11c0,0-3.85,8.95,0.14,19.94l15.17-0.83l38.05-2.07v-0.01c0,0-1.15-4.34-1.15-9.41       c0-4.67,1.15-9.42,1.15-9.42v-0.01l-37.5,1.28L344.58,718.11z"
         id="path100" />
      <path
         fill="#50bfa5"
         d="M398.74,735.1l-0.8,0.04l-38.05,2.07l-15.17,0.83c-4-10.99-0.14-19.94-0.14-19.94l15.86-0.55l37.5-1.28       l0.9-0.03c1.21-0.04,2.15-1.03,2.15-2.23c0-1.22-1-2.23-2.22-2.23c-0.04,0-0.06,0-0.1,0l-56.33,2.08c0,0-7.44,12.36,0,28.35       l56.6-2.66c1.22-0.06,2.16-1.09,2.13-2.32c-0.04-1.21-1.05-2.15-2.24-2.15C398.8,735.1,398.77,735.1,398.74,735.1z"
         id="path102" />
      <polygon
         fill="#3c8f7c"
         points="398.68 711.8 244.32 709.85 245.17 709.89 342.35 713.88"
         id="polygon104" />
      <path
         fill="#3c8f7c"
         d="M340.47,713.81l-95.3-3.92c-4.75-0.19-8.71,3.6-8.73,8.36l-0.06,11.87c-0.03,4.54,3.55,8.28,8.08,8.45       l97.9,3.67c-7.44-15.99,0-28.35,0-28.35L340.47,713.81z"
         id="path106" />
      <path
         fill="#e5bd83"
         d="M344.86 725.78c2.94.21 5.87.24 8.8.21 2.93-.02 5.85-.14 8.77-.29 2.92-.18 5.84-.38 8.75-.68 2.91-.29 5.82-.65 8.73-1.18-2.94-.21-5.87-.24-8.8-.21-2.93.02-5.85.14-8.77.29-2.92.18-5.84.38-8.75.68C350.67 724.89 347.76 725.25 344.86 725.78zM375.95 730.47c3.26.21 6.49.09 9.72-.11 3.23-.23 6.45-.55 9.65-1.2-3.26-.21-6.49-.09-9.72.11C382.37 729.5 379.15 729.82 375.95 730.47z"
         id="path108" />
      <path
         fill="#f47458"
         d="M370.73,743.29c2.97-4.38,2.67-14.77-0.55-18.96c-5.84,0.17-11.46,0.89-17.3,1.06      c3.22,4.2,3.31,14.04,0.33,18.41c3.63-1.3,7.16-2.98,10.44-4.87C366.21,740.65,368.53,742.16,370.73,743.29z"
         id="path110" />
      <path
         fill="#355389"
         d="M288.19,685.04l2.76,0.25c-6.87,0.49-12.03,6.44-11.54,13.31l0.27,3.8c0.41,5.73,4.64,10.28,10.02,11.33       l-44.34-3.56c-7.39-0.72-12.78-7.32-12.02-14.7l0.21-2.04c0.75-7.28,7.2-12.61,14.5-11.96l0.01,0L288.19,685.04z"
         id="path112" />
      <polygon
         fill="#355389"
         points="394.96 682.92 290.95 685.29 288.19 685.04 248.06 681.46 248.05 681.46 247.57 681.42"
         id="polygon114" />
      <path
         fill="#466eb6"
         d="M391.97,687.11l-100.8,2.64c-2.27,0.19-4.33,1.32-5.73,3.16c-1.21,1.61-1.7,3.64-1.56,5.65l0.26,3.51       c0.29,4.09,3.73,7.36,7.82,7.42c0.23,0,0.47-0.01,0.71-0.02l0.11-0.01l99.33-2.25l2.47-0.06c1.16-0.03,2.11,0.93,2.09,2.09       l-0.01,0.37c-0.02,1.1-0.9,1.99-2,2.02L293,713.93c-1.13,0.08-2.24,0.01-3.3-0.2c-5.38-1.05-9.61-5.6-10.02-11.33l-0.27-3.8       c-0.49-6.87,4.67-12.82,11.54-13.31l104.01-2.37c1.16-0.03,2.11,0.92,2.09,2.09c-0.02,1.1-0.89,1.99-1.99,2.02L391.97,687.11z"
         id="path116" />
      <path
         fill="#fae0b2"
         d="M392.11,707.21l-99.33,2.25l-0.11,0.01c-0.23,0.01-0.47,0.03-0.71,0.02c-4.09-0.07-7.53-3.33-7.82-7.42       l-0.26-3.51c-0.15-2.01,0.35-4.04,1.56-5.65c1.4-1.85,3.45-2.98,5.73-3.16l100.8-2.64c-0.04,0.18-1.31,6.18-1.38,10.03       C390.54,700.97,392.11,707.21,392.11,707.21z"
         id="path118" />
      <path
         fill="#e5bd83"
         d="M292.62 695.57c2.91-.49 5.82-.79 8.74-1.04 2.92-.26 5.84-.41 8.76-.55 2.92-.1 5.85-.18 8.78-.15 2.93.02 5.86.09 8.8.35-2.91.49-5.82.8-8.74 1.04-2.92.26-5.84.41-8.76.54-2.92.1-5.85.18-8.78.15C298.49 695.91 295.56 695.83 292.62 695.57zM316.67 703.75c2.91-.49 5.82-.79 8.74-1.04 2.92-.26 5.84-.41 8.76-.55 2.92-.1 5.85-.18 8.78-.15 2.93.02 5.86.09 8.8.35-2.91.49-5.82.8-8.74 1.04-2.92.26-5.84.41-8.76.54-2.92.1-5.85.18-8.78.15C322.54 704.08 319.61 704 316.67 703.75z"
         id="path120" />
      <path
         fill="#50bfa5"
         d="M320.63,718.92c4.04-5.41,4.3-18.79,0.43-24.32c-7.45-0.12-14.08,0.67-21.53,0.55      c3.87,5.53,2.77,18.01-1.27,23.42c4.71-1.45,9.29-3.38,13.59-5.6C315.02,715.3,317.89,717.36,320.63,718.92z"
         id="path122" />
      <path
         fill="#e5bd83"
         d="M342.42,698.52c4-0.49,8.01-0.79,12.02-1.04c4.01-0.26,8.02-0.41,12.04-0.54c4.01-0.1,8.03-0.18,12.05-0.15      c4.02,0.02,8.04,0.09,12.06,0.35c-4,0.49-8.01,0.8-12.02,1.04c-4.01,0.26-8.02,0.41-12.04,0.54c-4.01,0.1-8.03,0.17-12.05,0.15      C350.47,698.85,346.45,698.77,342.42,698.52z"
         id="path124" />
      <path
         fill="#fae0b2"
         d="M674.09,745.81c0,0-3.85,8.95,0.14,19.94l15.17-0.83l38.05-2.07v-0.01c0,0-1.15-4.34-1.15-9.41       c0-4.67,1.15-9.42,1.15-9.42v-0.01l-37.5,1.28L674.09,745.81z"
         id="path126" />
      <path
         fill="#50bfa5"
         d="M728.25,762.79l-0.8,0.04l-38.05,2.07l-15.17,0.83c-4-10.99-0.14-19.94-0.14-19.94l15.86-0.55l37.5-1.28       l0.9-0.03c1.21-0.04,2.15-1.03,2.15-2.23c0-1.22-1-2.23-2.22-2.23c-0.04,0-0.06,0-0.1,0l-56.33,2.08c0,0-7.44,12.36,0,28.35       l56.6-2.66c1.22-0.06,2.16-1.09,2.13-2.32c-0.04-1.21-1.05-2.15-2.24-2.15C728.31,762.79,728.28,762.79,728.25,762.79z"
         id="path128" />
      <polygon
         fill="#3c8f7c"
         points="728.19 739.5 573.83 737.55 574.68 737.58 671.86 741.58"
         id="polygon130" />
      <path
         fill="#3c8f7c"
         d="M669.98,741.5l-95.3-3.92c-4.75-0.19-8.71,3.6-8.73,8.36l-0.06,11.87c-0.03,4.54,3.55,8.28,8.08,8.45       l97.9,3.67c-7.44-15.99,0-28.35,0-28.35L669.98,741.5z"
         id="path132" />
      <path
         fill="#e5bd83"
         d="M674.37 753.47c2.94.21 5.87.24 8.8.21 2.93-.02 5.85-.14 8.77-.29 2.92-.18 5.84-.38 8.75-.68 2.91-.29 5.82-.65 8.72-1.18-2.94-.21-5.87-.24-8.8-.21-2.93.02-5.85.14-8.77.29-2.92.18-5.84.38-8.75.68C680.18 752.59 677.27 752.94 674.37 753.47zM705.46 758.16c3.26.21 6.49.09 9.72-.11 3.23-.23 6.45-.55 9.65-1.2-3.26-.21-6.49-.09-9.72.11C711.88 757.2 708.66 757.51 705.46 758.16z"
         id="path134" />
      <path
         fill="#f47458"
         d="M700.24,770.99c2.97-4.38,2.67-14.77-0.55-18.96c-5.84,0.17-11.46,0.89-17.3,1.06      c3.22,4.2,3.31,14.04,0.33,18.41c3.63-1.3,7.16-2.98,10.44-4.87C695.72,768.35,698.04,769.86,700.24,770.99z"
         id="path136" />
      <g
         id="g152">
        <path
           fill="#355389"
           d="M617.7,712.73l2.76,0.25c-6.87,0.49-12.03,6.44-11.54,13.31l0.27,3.8c0.41,5.73,4.64,10.28,10.02,11.33       l-44.35-3.56c-7.39-0.72-12.78-7.32-12.01-14.7l0.21-2.04c0.75-7.28,7.2-12.61,14.5-11.96l0.01,0L617.7,712.73z"
           id="path138" />
        <polygon
           fill="#355389"
           points="724.47 710.62 620.46 712.98 617.7 712.73 577.57 709.16 577.56 709.16 577.08 709.12"
           id="polygon140" />
        <path
           fill="#466eb6"
           d="M721.48,714.81l-100.8,2.64c-2.27,0.19-4.33,1.32-5.73,3.16c-1.21,1.61-1.7,3.64-1.56,5.65l0.26,3.51       c0.29,4.09,3.73,7.36,7.82,7.42c0.23,0,0.47-0.01,0.71-0.02l0.11-0.01l99.33-2.25l2.47-0.06c1.16-0.03,2.11,0.93,2.09,2.09       l-0.01,0.37c-0.02,1.1-0.9,1.99-2,2.02l-101.67,2.3c-1.13,0.08-2.24,0.01-3.3-0.2c-5.38-1.05-9.61-5.6-10.02-11.33l-0.27-3.8       c-0.49-6.87,4.67-12.82,11.54-13.31l104.01-2.37c1.16-0.03,2.11,0.92,2.09,2.09c-0.02,1.1-0.89,1.99-1.99,2.02L721.48,714.81z"
           id="path142" />
        <path
           fill="#fae0b2"
           d="M721.62,734.91l-99.33,2.25l-0.11,0.01c-0.23,0.01-0.47,0.03-0.71,0.02c-4.09-0.07-7.53-3.33-7.82-7.42       l-0.26-3.51c-0.15-2.01,0.35-4.04,1.56-5.65c1.4-1.85,3.45-2.98,5.73-3.16l100.8-2.64c-0.04,0.18-1.31,6.18-1.38,10.03       C720.05,728.67,721.62,734.91,721.62,734.91z"
           id="path144" />
        <path
           fill="#e5bd83"
           d="M622.13 723.27c2.91-.49 5.82-.79 8.74-1.04 2.92-.26 5.84-.41 8.76-.55 2.92-.1 5.85-.18 8.78-.15 2.93.02 5.86.09 8.8.35-2.91.49-5.82.8-8.74 1.04-2.92.26-5.84.41-8.76.54-2.92.1-5.85.18-8.78.15C628 723.6 625.07 723.52 622.13 723.27zM646.18 731.45c2.91-.49 5.82-.79 8.74-1.04 2.92-.26 5.84-.41 8.76-.55 2.92-.1 5.85-.18 8.78-.15 2.93.02 5.86.09 8.8.35-2.91.49-5.82.8-8.74 1.04-2.92.26-5.84.41-8.76.54-2.92.1-5.85.18-8.78.15C652.05 731.78 649.12 731.7 646.18 731.45z"
           id="path146" />
        <path
           fill="#50bfa5"
           d="M650.14,746.62c4.04-5.41,4.3-18.79,0.43-24.32c-7.45-0.12-14.08,0.67-21.53,0.55      c3.87,5.53,2.77,18.01-1.27,23.42c4.71-1.45,9.29-3.38,13.59-5.6C644.53,743,647.4,745.06,650.14,746.62z"
           id="path148" />
        <path
           fill="#e5bd83"
           d="M671.93,726.22c4-0.49,8.01-0.79,12.02-1.04c4.01-0.26,8.02-0.41,12.04-0.54c4.01-0.1,8.03-0.18,12.05-0.15      c4.02,0.02,8.04,0.09,12.06,0.35c-4,0.49-8.01,0.8-12.02,1.04c-4.01,0.26-8.02,0.41-12.04,0.54c-4.01,0.1-8.03,0.17-12.05,0.15      C679.98,726.55,675.96,726.47,671.93,726.22z"
           id="path150" />
      </g>
      <g
         id="g162">
        <path
           fill="#fae0b2"
           d="M586,665.96h130.56c0,0-2.28,9.45-2.28,19.72c0,9.98,2.28,19.72,2.28,19.72H586       c-4.63,0-8.39-3.75-8.39-8.39v-22.66C577.61,669.71,581.37,665.96,586,665.96z"
           id="path154" />
        <path
           fill="#184655"
           d="M718.32,660.59c1.48,0,2.68,1.21,2.68,2.68c0,0.74-0.29,1.41-0.79,1.9c-0.48,0.49-1.15,0.79-1.9,0.79       h-1.76H586c-4.63,0-8.39,3.75-8.39,8.39v22.66c0,4.63,3.75,8.39,8.39,8.39h130.56h1.76c1.48,0,2.68,1.2,2.68,2.68       c0,0.74-0.29,1.4-0.79,1.9c-0.48,0.48-1.15,0.79-1.9,0.79H586c-7.6,0-13.75-6.16-13.75-13.75v-22.67       c0-7.59,6.15-13.75,13.75-13.75H718.32z"
           id="path156" />
        <path
           fill="#e5bd83"
           d="M594.61 673.59c7.73-.35 15.46-.58 23.19-.69 7.73-.14 15.46-.18 23.19-.2 7.73.02 15.46.05 23.19.2 7.73.12 15.46.35 23.19.7-7.73.35-15.46.58-23.19.7-7.73.14-15.46.18-23.19.2-7.73-.02-15.46-.06-23.19-.2C610.07 674.17 602.34 673.94 594.61 673.59zM589.77 685.68c2.92-.37 5.84-.56 8.76-.69 2.92-.14 5.84-.18 8.76-.2 2.92.02 5.84.05 8.76.2 2.92.13 5.84.33 8.76.7-2.92.37-5.84.57-8.76.7-2.92.14-5.84.18-8.76.2-2.92-.02-5.84-.06-8.76-.2C595.62 686.24 592.7 686.05 589.77 685.68zM612.14 698.07c2.92-.37 5.84-.56 8.76-.7 2.92-.14 5.84-.18 8.76-.2 2.92.02 5.84.05 8.76.2 2.92.13 5.84.33 8.76.7-2.92.37-5.84.57-8.76.7-2.92.14-5.84.18-8.76.2-2.92-.02-5.84-.06-8.76-.2C617.98 698.63 615.06 698.44 612.14 698.07zM630.58 690.82c6.75-.35 13.5-.58 20.25-.69 6.75-.14 13.5-.18 20.25-.2 6.75.02 13.5.05 20.25.2 6.75.12 13.5.35 20.25.7-6.75.35-13.5.58-20.25.7-6.75.14-13.5.18-20.25.2-6.75-.02-13.5-.06-20.25-.2C644.08 691.39 637.33 691.16 630.58 690.82z"
           id="path158" />
        <path
           fill="#50bfa5"
           d="M616.97,709.55c-3.95-7.47-3.95-16.41,0-23.87c-7.45,0-14.91,0-22.36,0c-3.95,7.47-3.95,16.41,0,23.87      c2.65-2.03,5.6-4.17,8.83-6.36C607.66,705.38,612.17,707.52,616.97,709.55z"
           id="path160" />
      </g>
      <g
         id="g172">
        <path
           fill="#fae0b2"
           d="M691.77,536.4H561.21c0,0,2.28,9.45,2.28,19.72c0,9.98-2.28,19.72-2.28,19.72h130.56       c4.63,0,8.39-3.75,8.39-8.39V544.8C700.16,540.16,696.41,536.4,691.77,536.4z"
           id="path164" />
        <path
           fill="#184655"
           d="M559.45,531.04c-1.48,0-2.68,1.21-2.68,2.68c0,0.74,0.3,1.41,0.79,1.9c0.48,0.49,1.15,0.79,1.9,0.79h1.76       h130.56c4.63,0,8.39,3.75,8.39,8.39v22.66c0,4.63-3.75,8.39-8.39,8.39H561.21h-1.76c-1.48,0-2.68,1.2-2.68,2.68       c0,0.74,0.3,1.4,0.79,1.9c0.48,0.48,1.15,0.79,1.9,0.79h132.32c7.6,0,13.75-6.16,13.75-13.75v-22.67       c0-7.59-6.15-13.75-13.75-13.75H559.45z"
           id="path166" />
        <path
           fill="#e5bd83"
           d="M683.16 544.04c-7.73-.35-15.46-.58-23.19-.69-7.73-.14-15.46-.18-23.19-.2-7.73.02-15.46.05-23.19.2-7.73.12-15.46.35-23.19.7 7.73.35 15.46.58 23.19.7 7.73.14 15.46.18 23.19.2 7.73-.02 15.46-.06 23.19-.2C667.7 544.61 675.43 544.38 683.16 544.04zM688 556.12c-2.92-.37-5.84-.56-8.76-.69-2.92-.14-5.84-.18-8.76-.2-2.92.02-5.84.05-8.76.2-2.92.13-5.84.33-8.76.7 2.92.37 5.84.57 8.76.7 2.92.14 5.84.18 8.76.2 2.92-.02 5.84-.06 8.76-.2C682.16 556.69 685.08 556.49 688 556.12zM665.64 568.51c-2.92-.37-5.84-.56-8.76-.7-2.92-.14-5.84-.18-8.76-.2-2.92.02-5.84.05-8.76.2-2.92.13-5.84.33-8.76.7 2.92.37 5.84.57 8.76.7 2.92.14 5.84.18 8.76.2 2.92-.02 5.84-.06 8.76-.2C659.79 569.08 662.71 568.88 665.64 568.51zM647.19 561.26c-6.75-.35-13.5-.58-20.25-.69-6.75-.14-13.5-.18-20.25-.2-6.75.02-13.5.05-20.25.2-6.75.12-13.5.35-20.25.7 6.75.35 13.5.58 20.25.7 6.75.14 13.5.18 20.25.2 6.75-.02 13.5-.06 20.25-.2C633.69 561.84 640.44 561.61 647.19 561.26z"
           id="path168" />
        <path
           fill="#50bfa5"
           d="M660.8,580c3.95-7.47,3.95-16.41,0-23.87c7.45,0,14.91,0,22.36,0c3.95,7.47,3.95,16.41,0,23.87      c-2.65-2.03-5.6-4.17-8.83-6.36C670.11,575.82,665.6,577.97,660.8,580z"
           id="path170" />
      </g>
      <g
         id="g182">
        <path
           fill="#fae0b2"
           d="M704.06,486.4H573.5c0,0,2.28,9.45,2.28,19.72c0,9.98-2.28,19.72-2.28,19.72h130.56       c4.63,0,8.39-3.75,8.39-8.39v-22.66C712.44,490.15,708.69,486.4,704.06,486.4z"
           id="path174" />
        <path
           fill="#f47458"
           d="M571.73,481.03c-1.48,0-2.68,1.21-2.68,2.68c0,0.74,0.29,1.41,0.79,1.9c0.48,0.49,1.15,0.79,1.9,0.79       h1.76h130.56c4.63,0,8.39,3.75,8.39,8.39v22.66c0,4.63-3.75,8.39-8.39,8.39H573.5h-1.76c-1.48,0-2.68,1.2-2.68,2.68       c0,0.74,0.29,1.4,0.79,1.9c0.48,0.48,1.15,0.79,1.9,0.79h132.32c7.6,0,13.75-6.16,13.75-13.75v-22.67       c0-7.59-6.15-13.75-13.75-13.75H571.73z"
           id="path176" />
        <path
           fill="#e5bd83"
           d="M695.44 494.03c-7.73-.35-15.46-.58-23.19-.69-7.73-.14-15.46-.18-23.19-.2-7.73.02-15.46.05-23.19.2-7.73.12-15.46.35-23.19.7 7.73.35 15.46.58 23.19.7 7.73.14 15.46.18 23.19.2 7.73-.02 15.46-.06 23.19-.2C679.98 494.61 687.71 494.38 695.44 494.03zM700.28 506.12c-2.92-.37-5.84-.56-8.76-.69-2.92-.14-5.84-.18-8.76-.2-2.92.02-5.84.05-8.76.2-2.92.13-5.84.33-8.76.7 2.92.37 5.84.57 8.76.7 2.92.14 5.84.18 8.76.2 2.92-.02 5.84-.06 8.76-.2C694.44 506.68 697.36 506.49 700.28 506.12zM677.92 518.51c-2.92-.37-5.84-.56-8.76-.69-2.92-.14-5.84-.18-8.76-.2-2.92.02-5.84.05-8.76.2-2.92.13-5.84.33-8.76.7 2.92.37 5.84.57 8.76.7 2.92.14 5.84.18 8.76.2 2.92-.02 5.84-.06 8.76-.2C672.07 519.07 675 518.88 677.92 518.51zM659.47 511.26c-6.75-.35-13.5-.58-20.25-.69-6.75-.14-13.5-.18-20.25-.2-6.75.02-13.5.05-20.25.2-6.75.12-13.5.35-20.25.7 6.75.35 13.5.58 20.25.7 6.75.14 13.5.18 20.25.2 6.75-.02 13.5-.06 20.25-.2C645.97 511.83 652.72 511.6 659.47 511.26z"
           id="path178" />
        <path
           fill="#355389"
           d="M673.08,529.99c3.95-7.47,3.95-16.41,0-23.87c7.45,0,14.91,0,22.36,0c3.95,7.47,3.95,16.41,0,23.87      c-2.65-2.03-5.6-4.17-8.83-6.36C682.4,525.82,677.88,527.96,673.08,529.99z"
           id="path180" />
      </g>
      <g
         id="g198">
        <rect
           width="8.31"
           height="39.45"
           x="424.95"
           y="727.17"
           fill="#fe875e"
           id="rect184" />
        <rect
           width="13.84"
           height="39.45"
           x="411.11"
           y="727.17"
           fill="#f7cc7f"
           id="rect186" />
        <rect
           width="96.03"
           height="39.45"
           x="433.26"
           y="727.17"
           fill="#f7cc7f"
           id="rect188" />
        <rect
           width="8.31"
           height="39.45"
           x="529.3"
           y="727.17"
           fill="#fe875e"
           id="rect190" />
        <rect
           width="13.84"
           height="39.45"
           x="537.61"
           y="727.17"
           fill="#f7cc7f"
           id="rect192" />
        <path
           fill="#355389"
           d="M551.53,738.49c0,0,10.62,5.12,12.33,18.96l-4.55-3.79l-1.61,3.79c0,0-1.04-11.76-6.16-16.31V738.49z"
           id="path194" />
        <ellipse
           cx="481.03"
           cy="746.9"
           fill="#fe875e"
           rx="37.68"
           ry="8.91"
           id="ellipse196" />
      </g>
      <g
         id="g214">
        <rect
           width="8.31"
           height="39.45"
           x="578.46"
           y="620.91"
           fill="#fe875e"
           id="rect200" />
        <rect
           width="13.84"
           height="39.45"
           x="564.62"
           y="620.91"
           fill="#f7cc7f"
           id="rect202" />
        <rect
           width="96.03"
           height="39.45"
           x="586.77"
           y="620.91"
           fill="#f7cc7f"
           id="rect204" />
        <rect
           width="8.31"
           height="39.45"
           x="682.81"
           y="620.91"
           fill="#fe875e"
           id="rect206" />
        <rect
           width="13.84"
           height="39.45"
           x="691.12"
           y="620.91"
           fill="#f7cc7f"
           id="rect208" />
        <path
           fill="#355389"
           d="M705.04,632.23c0,0,10.62,5.12,12.33,18.96l-4.55-3.79l-1.61,3.79c0,0-1.04-11.76-6.16-16.31V632.23z"
           id="path210" />
        <ellipse
           cx="634.54"
           cy="640.63"
           fill="#fe875e"
           rx="37.68"
           ry="8.91"
           id="ellipse212" />
      </g>
      <g
         id="g228">
        <rect
           width="8.31"
           height="39.45"
           x="702.82"
           y="581.46"
           fill="#fe5e5e"
           id="rect216" />
        <rect
           width="13.84"
           height="39.45"
           x="711.13"
           y="581.46"
           fill="#f7b07f"
           id="rect218" />
        <rect
           width="96.03"
           height="39.45"
           x="606.79"
           y="581.46"
           fill="#f7b07f"
           id="rect220" />
        <rect
           width="8.31"
           height="39.45"
           x="598.48"
           y="581.46"
           fill="#fe5e5e"
           id="rect222" />
        <rect
           width="13.84"
           height="39.45"
           x="584.64"
           y="581.46"
           fill="#f7b07f"
           id="rect224" />
        <path
           fill="#358988"
           d="M584.55,592.77c0,0-10.62,5.12-12.33,18.96l4.55-3.79l1.61,3.79c0,0,1.04-11.76,6.16-16.31V592.77z"
           id="path226" />
      </g>
      <g
         id="g242">
        <path
           fill="#fae0b2"
           d="M522.65,705.95c0,0-2.74,8.95,0.11,19.94l9.55-0.8l27.14-2.07v-0.01c0,0-0.82-4.34-0.82-9.41       c0-4.67,0.82-9.42,0.82-9.42l-26.75,1.27L522.65,705.95z"
           id="path230" />
        <path
           fill="#f79c8d"
           d="M519.79,701.76c0,0-5.31,12.36,0,28.35l40.38-2.66c0.87-0.06,1.55-1.09,1.52-2.32       c-0.04-1.21-0.75-2.15-1.6-2.15c-0.03,0-0.04,0-0.07,0l-0.57,0.04l-27.14,2.07l-9.55,0.8c-2.85-10.99-0.11-19.94-0.11-19.94       l10.05-0.51l26.75-1.27l0.65-0.04c0.86-0.04,1.54-1.03,1.54-2.23c0-1.22-0.72-2.23-1.58-2.23c-0.03,0-0.04,0-0.07,0       L519.79,701.76z"
           id="path232" />
        <polygon
           fill="#f47458"
           points="399.36 697.89 403.21 697.89 519.79 701.76 559.99 699.67 442.68 697.34"
           id="polygon234" />
        <path
           fill="#f47458"
           d="M399.36,697.89c0,0-5.61,16.57-0.63,28.88h4.48l116.58,3.34c-5.31-15.99,0-28.35,0-28.35l-116.58-3.87       H399.36z"
           id="path236" />
        <path
           fill="#e5bd83"
           d="M522.04 711.63c4.21.2 8.39.06 12.57-.15 4.18-.25 8.36-.58 12.51-1.24-4.21-.2-8.39-.06-12.57.15C530.37 710.64 526.19 710.97 522.04 711.63zM543.48 718.34c2.34.21 4.65.09 6.96-.11 2.3-.23 4.59-.55 6.86-1.2-2.34-.21-4.66-.09-6.96.11C548.04 717.38 545.75 717.69 543.48 718.34z"
           id="path238" />
        <path
           fill="#f8c558"
           d="M540.39 721.84c1.74-2.69 1.41-8.82-.6-11.31-3.53.19-7.06.37-10.59.56 2.01 2.49 2.33 8.62.6 11.31 2.18-.84 4.29-1.9 6.25-3.09C537.62 720.3 539.04 721.18 540.39 721.84zM509.95 729.79c-4.99-12.3.61-28.36.61-28.36h-10.9c0 0-5.61 16.05-.61 28.36H509.95zM418.38 727.3c-4.99-12.3.61-28.36.61-28.36h-10.9c0 0-5.61 16.05-.61 28.36H418.38z"
           id="path240" />
      </g>
      <g
         id="g258">
        <path
           fill="#355389"
           d="M449.96,672.89l2.76,0.25c-6.87,0.49-12.03,6.44-11.54,13.31l0.27,3.8c0.41,5.73,4.64,10.28,10.02,11.33       l-44.34-3.56c-7.39-0.72-12.78-7.32-12.02-14.7l0.21-2.04c0.75-7.28,7.2-12.61,14.5-11.96l0.01,0L449.96,672.89z"
           id="path244" />
        <polygon
           fill="#355389"
           points="556.73 670.77 452.72 673.14 449.96 672.89 409.83 669.32 409.82 669.32 409.34 669.27"
           id="polygon246" />
        <path
           fill="#466eb6"
           d="M553.74,674.96l-100.8,2.64c-2.27,0.19-4.33,1.32-5.73,3.16c-1.21,1.61-1.7,3.64-1.56,5.65l0.26,3.51       c0.29,4.09,3.73,7.36,7.82,7.42c0.23,0,0.47-0.01,0.71-0.02l0.11-0.01l99.33-2.25l2.47-0.06c1.16-0.03,2.11,0.93,2.09,2.09       l-0.01,0.37c-0.02,1.1-0.9,1.99-2,2.02l-101.67,2.3c-1.13,0.08-2.24,0.01-3.3-0.2c-5.38-1.05-9.61-5.6-10.02-11.33l-0.27-3.8       c-0.49-6.87,4.67-12.82,11.54-13.31l104.01-2.37c1.16-0.03,2.11,0.92,2.09,2.09c-0.02,1.1-0.89,1.99-1.99,2.02L553.74,674.96z"
           id="path248" />
        <path
           fill="#fae0b2"
           d="M553.88,695.06l-99.33,2.25l-0.11,0.01c-0.23,0.01-0.47,0.03-0.71,0.02c-4.09-0.07-7.53-3.33-7.82-7.42       l-0.26-3.51c-0.15-2.01,0.35-4.04,1.56-5.65c1.4-1.85,3.45-2.98,5.73-3.16l100.8-2.64c-0.04,0.18-1.31,6.18-1.38,10.03       C552.31,688.83,553.88,695.06,553.88,695.06z"
           id="path250" />
        <path
           fill="#e5bd83"
           d="M454.39 683.43c2.91-.49 5.82-.79 8.74-1.04 2.92-.26 5.84-.41 8.76-.55 2.92-.1 5.85-.18 8.78-.15 2.93.02 5.86.09 8.8.35-2.91.49-5.82.8-8.74 1.04-2.92.26-5.84.41-8.76.54-2.92.1-5.85.18-8.78.15C460.26 683.76 457.33 683.68 454.39 683.43zM478.44 691.6c2.91-.49 5.82-.79 8.74-1.04 2.92-.26 5.84-.41 8.76-.55 2.92-.1 5.85-.18 8.78-.15 2.93.02 5.86.09 8.8.35-2.91.49-5.82.8-8.74 1.04-2.92.26-5.84.41-8.76.54-2.92.1-5.85.18-8.78.15C484.31 691.93 481.38 691.86 478.44 691.6z"
           id="path252" />
        <path
           fill="#50bfa5"
           d="M482.4,706.78c4.04-5.41,4.3-18.79,0.43-24.32c-7.45-0.12-14.08,0.67-21.53,0.55      c3.87,5.53,2.77,18.01-1.27,23.42c4.71-1.45,9.3-3.38,13.59-5.6C476.79,703.16,479.66,705.21,482.4,706.78z"
           id="path254" />
        <path
           fill="#e5bd83"
           d="M504.2,686.37c4-0.49,8.01-0.79,12.02-1.04c4.01-0.26,8.02-0.41,12.04-0.54c4.01-0.1,8.03-0.18,12.05-0.15      c4.02,0.02,8.04,0.09,12.06,0.35c-4,0.49-8.01,0.8-12.02,1.04c-4.01,0.26-8.02,0.41-12.04,0.54c-4.01,0.1-8.03,0.17-12.05,0.15      C512.24,686.71,508.22,686.63,504.2,686.37z"
           id="path256" />
      </g>
      <g
         id="g272">
        <path
           fill="#fae0b2"
           d="M499.68,649.28c0,0-3.85,8.95,0.14,19.94l15.17-0.83l38.05-2.07v-0.01c0,0-1.15-4.34-1.15-9.41       c0-4.67,1.15-9.42,1.15-9.42v-0.01l-37.5,1.28L499.68,649.28z"
           id="path260" />
        <path
           fill="#bf50a7"
           d="M553.84,666.26l-0.8,0.04l-38.05,2.07l-15.17,0.83c-4-10.99-0.14-19.94-0.14-19.94l15.86-0.55l37.5-1.28       l0.9-0.03c1.21-0.04,2.15-1.03,2.15-2.23c0-1.22-1-2.23-2.22-2.23c-0.04,0-0.06,0-0.1,0l-56.33,2.08c0,0-7.44,12.35,0,28.35       l56.6-2.66c1.22-0.06,2.16-1.09,2.13-2.32c-0.04-1.21-1.05-2.15-2.24-2.15C553.9,666.26,553.87,666.26,553.84,666.26z"
           id="path262" />
        <polygon
           fill="#8f3c7d"
           points="553.78 642.96 399.42 641.02 400.27 641.05 497.45 645.05"
           id="polygon264" />
        <path
           fill="#8f3c7d"
           d="M495.57,644.97l-95.3-3.92c-4.75-0.19-8.71,3.6-8.73,8.36l-0.06,11.87c-0.03,4.54,3.55,8.28,8.08,8.45       l97.9,3.67c-7.44-15.99,0-28.35,0-28.35L495.57,644.97z"
           id="path266" />
        <path
           fill="#e5bd83"
           d="M499.96 656.94c2.94.21 5.87.24 8.8.21 2.93-.02 5.85-.14 8.77-.29 2.92-.18 5.84-.38 8.75-.68 2.91-.29 5.82-.65 8.73-1.18-2.94-.21-5.87-.24-8.8-.21-2.93.02-5.85.14-8.77.29-2.92.18-5.84.38-8.75.68C505.77 656.06 502.86 656.41 499.96 656.94zM531.05 661.63c3.26.21 6.49.09 9.72-.11 3.23-.23 6.45-.55 9.65-1.2-3.26-.21-6.49-.09-9.72.11C537.47 660.67 534.25 660.98 531.05 661.63z"
           id="path268" />
        <path
           fill="#f47458"
           d="M525.83,674.45c2.97-4.38,2.67-14.77-0.55-18.96c-5.84,0.17-11.46,0.89-17.3,1.06      c3.22,4.2,3.31,14.04,0.33,18.41c3.63-1.3,7.16-2.98,10.44-4.87C521.31,671.82,523.62,673.33,525.83,674.45z"
           id="path270" />
      </g>
    </g>
    <path
       fill="#171c51"
       d="M614.15,484.94l47.45,284.76c0.27,1.64,1.69,2.8,3.3,2.8c0.18,0,0.37-0.02,0.56-0.05    c1.83-0.3,3.06-2.03,2.76-3.86l-2.59-15.53h77.17l2.77,16.63c0.27,1.64,1.69,2.8,3.3,2.8c0.18,0,0.37-0.02,0.56-0.05    c1.83-0.3,3.06-2.03,2.76-3.86l-47.45-284.76c-0.3-1.83-2.03-3.07-3.86-2.76c-1.83,0.3-3.06,2.03-2.76,3.86l3.4,20.39h-77.17    l-3.58-21.49c-0.3-1.83-2.03-3.07-3.86-2.76C615.08,481.38,613.84,483.11,614.15,484.94z M632.16,552.21h77.17l5.58,33.46h-77.17    L632.16,552.21z M638.85,592.38h77.17l5.58,33.46h-77.17L638.85,592.38z M645.54,632.55h77.17l5.58,33.46h-77.17L645.54,632.55z     M734.98,706.18h-77.17l-5.58-33.46h77.17L734.98,706.18z M702.63,512.04l5.58,33.46h-77.17l-5.58-33.46H702.63z M664.51,746.35    l-5.58-33.46h77.17l5.58,33.46H664.51z"
       id="path276" />
    <g
       id="g292">
      <path
         fill="#13375b"
         d="M683.98,433.03c-30-4.69-51.16-21.34-51.16-21.34s15.87,2.71,26.97,7.34      C669.62,423.13,683.98,433.03,683.98,433.03z"
         id="path278" />
      <path
         fill="#355389"
         d="M690.64,417.07l-6.66,15.96c0,0-14.36-9.9-24.19-14c-11.1-4.63-26.97-7.34-26.97-7.34l6.66-15.96      l6.66-15.96c0,0,15.56-2.2,28.67,3.27c12.16,5.07,22.5,18.07,22.5,18.07L690.64,417.07z"
         id="path280" />
      <path
         fill="#13375b"
         d="M721.99,416.3l-30.92,0.94l-0.43-0.18l6.66-15.96c0,0-10.34-13-22.5-18.07      c-13.11-5.47-28.67-3.27-28.67-3.27l-6.66,15.96l-0.42-0.17l-21.09-22.64l61.4-0.82L721.99,416.3z"
         id="path282" />
      <path
         fill="#355389"
         d="M678.86,367.64l-59.16,1.1l-1.74,4.17l59.06-0.79c1.5-0.02,2.93,0.58,3.97,1.66l40.99,42.52l1.74-4.17      l-40.85-42.81C681.84,368.22,680.38,367.61,678.86,367.64z"
         id="path284" />
      <path
         fill="#fec65e"
         d="M620.93,401.52c0,0-3.17,3.14-3.77,6.37c-0.6,3.22-0.2,6.49-0.2,6.49l0.72,0.3l0.65-3.58l-0.35,4.94     l1.33,0.06l1.26-6.86l-0.39,5.98c0,0,1.43-0.15,1.6-0.57c0.18-0.42,0.56-5.85,0.56-5.85l-0.2,6.5c0,0,0.66,0.77,3.08-5.04     c2.43-5.81-2.08-9.3-2.08-9.3L620.93,401.52z"
         id="path286" />
      <path
         fill="#fec65e"
         d="M655.92,368.07l-4.25,0.08c-0.61-0.34-1.38-0.72-2.26-1.09c-3.97-1.65-10.25-2.99-15.87,1.42      c-0.39,0.31-0.78,0.65-1.17,1.02c-1.1,1.04-2.04,2.13-2.83,3.26c-3.9,5.53-4.35,11.88-4.81,18.54c-0.26,3.62-0.52,7.37-1.38,11      c-0.17,0.73-0.9,1.18-1.63,1c-0.07-0.02-0.15-0.04-0.21-0.07c-0.6-0.25-0.95-0.9-0.8-1.56c0.81-3.42,1.07-7.05,1.31-10.56      c0.43-6.2,0.88-12.56,4.27-18.31c0.86-1.46,1.9-2.88,3.19-4.23c0.32-0.35,0.66-0.69,1.01-1.02c10.73-10.2,24.33-0.64,24.47-0.54      C655.34,367.26,655.64,367.66,655.92,368.07z"
         id="path288" />
      <path
         fill="#f7f07f"
         d="M624.96,400.16c0.65,1.42,0.04,3.09-1.38,3.75c-1.42,0.65-3.1,0.04-3.75-1.38     c-0.65-1.42-0.04-3.1,1.38-3.75C622.63,398.12,624.3,398.74,624.96,400.16z"
         id="path290" />
    </g>
    <g
       id="g308">
      <path
         fill="#355389"
         d="M586.77,387.55c8.48-4.21,19.93,2.17,19.93,2.17c-0.59-1.96-5.98-6.2-5.98-6.2     c1.27-1.1,5.38-1.63,5.38-1.63c-7.68-3.01-17.82,1.78-17.82,1.78L586.77,387.55z"
         id="path294" />
      <path
         fill="#13375b"
         d="M586.16,388.4c0,0,1.19,10.87,7.97,15.58c0,0-1.84-3.71-1.63-5.38c0,0,6.52,2.12,8.48,1.52     c0,0-11.67-5.96-12.89-15.35L586.16,388.4z"
         id="path296" />
      <path
         fill="#f7cc7f"
         d="M558.06,414.07l-4.88-3.86c9.32-9.34,15.97-19.23,20.7-28.41l0.83,0.43L558.06,414.07z"
         id="path298" />
      <path
         fill="#fae0b2"
         d="M575.84,424.15c0,0-13.51,5.18-19.15-7.47l1.37-2.61l16.65-31.84l18.05-34.51c-1.6,3-0.47,6.74,2.53,8.34      c3.31,1.77,7.33,0.87,9.61-1.94C600.73,360.54,581.75,391.09,575.84,424.15z"
         id="path300" />
      <path
         fill="#e5bd83"
         d="M599.42,345.7l-4.14,10.37c-3-1.6-4.14-5.34-2.53-8.34C594.03,345.32,597.02,344.42,599.42,345.7z"
         id="path302" />
      <path
         fill="#f7cc7f"
         d="M592.75,347.72l-18.05,34.51l-0.83-0.43c10.42-20.21,11.59-36.99,11.59-36.99      c3.13-5.86,10.42-8.07,16.29-4.95c4.69,2.51,6.47,8.34,3.96,13.03c0,0,0,0.01-0.02,0.03c-0.07,0.11-0.34,0.5-0.76,1.15      c-0.01,0.02-0.02,0.03-0.03,0.05c-2.28,2.81-6.3,3.7-9.61,1.94l4.14-10.37C597.02,344.42,594.03,345.32,592.75,347.72z"
         id="path304" />
      <path
         fill="#13375b"
         d="M574.42,380.72c0,0,2.58,6.88,11.83,9.12l3.13-7.18c-9.25-2.24-11.69-9.02-11.69-9.02L574.42,380.72z"
         id="path306" />
    </g>
    <g
       id="g326">
      <polygon
         fill="#fe875e"
         points="751.17 366.8 756.43 368 722.73 388.89 723.84 384.01"
         id="polygon310" />
      <rect
         width="32.3"
         height="27.49"
         x="714.03"
         y="350.03"
         fill="#f7cc7f"
         transform="rotate(-32.21 730.206 363.799)"
         id="rect312" />
      <polygon
         fill="#fe875e"
         points="736.52 343.54 709.19 360.75 712.7 354.9 729.71 344.18"
         id="polygon314" />
      <rect
         width="20.11"
         height="2.24"
         x="710.56"
         y="347.47"
         fill="#f7cc7f"
         transform="rotate(-32.21 720.605 348.608)"
         id="rect316" />
      <polygon
         fill="#fe875e"
         points="725.19 340.74 728.47 342.21 711.5 353 711.62 349.29"
         id="polygon318" />
      <path
         fill="#fec65e"
         d="M715.09 318.64c-.54 1.17-1.42 3.82.16 6.32l9.94 15.77-13.57 8.55-9.94-15.77c-1.58-2.51-4.34-2.86-5.63-2.88 3.8-.22 7.6-1.38 11.05-3.56C710.56 324.9 713.25 321.97 715.09 318.64zM677.17 318.31l1.13 1.8-2.01 1.27c-6.3 3.97-14.63 2.08-18.6-4.22l-4.43-7.03c-.89-1.41-1.12-3.05-.78-4.56.34-1.5 1.26-2.88 2.67-3.77 4.59-2.89 10.66-1.52 13.55 3.07L677.17 318.31zM674.57 319.26l-8.15-12.94c-2.09-3.32-6.49-4.31-9.81-2.22-1.55.98-2.02 3.04-1.04 4.59l4.43 7.03C663.1 320.64 669.57 322.19 674.57 319.26zM715.06 271.2l4.43 7.03c3.97 6.3 2.08 14.63-4.22 18.6l-2.01 1.27-1.13-1.8-8.47-13.44c-2.89-4.59-1.51-10.65 3.08-13.55 1.41-.89 3.05-1.12 4.56-.78C712.79 268.87 714.17 269.79 715.06 271.2zM717.2 279.67l-4.43-7.03c-.98-1.55-3.04-2.02-4.59-1.04-3.32 2.09-4.32 6.49-2.23 9.81l8.15 12.94C718.91 291.11 720.3 284.6 717.2 279.67z"
         id="path320" />
      <path
         fill="#fec65e"
         d="M698.48,269.56l15.93,25.29c4.57,7.26,4.66,16.07,0.99,23.18c0,0-0.01,0-0.01,0.01     c-0.03,0.04-0.14,0.23-0.28,0.54c-0.01,0.02-0.02,0.04-0.03,0.06c-1.84,3.33-4.53,6.26-7.98,8.43     c-3.45,2.17-7.25,3.34-11.05,3.56c-0.02,0-0.04,0-0.06,0c-0.34,0-0.56,0.02-0.61,0.02c-0.01,0-0.02,0-0.02,0     c-8,0.24-15.91-3.64-20.48-10.9l-15.93-25.29L698.48,269.56z"
         id="path322" />
      <path
         fill="#fec65e"
         d="M713.38,293.2l1.04,1.65c4.57,7.26,4.66,16.07,0.99,23.18c0,0-0.01,0-0.01,0.01     c-0.03,0.04-0.14,0.23-0.28,0.54c-0.01,0.02-0.02,0.04-0.03,0.06c-1.84,3.33-4.53,6.26-7.98,8.43     c-3.45,2.17-7.25,3.34-11.05,3.56c-0.02,0-0.04,0-0.06,0c-0.34,0-0.56,0.02-0.61,0.02c-0.01,0-0.02,0-0.02,0     c-8,0.24-15.91-3.64-20.48-10.9l-1.04-1.65c4.57,7.26,12.48,11.14,20.48,10.9c0,0,0.01,0,0.02,0c0.05-0.01,0.27-0.03,0.61-0.02     c0.02,0,0.04,0,0.06,0c3.8-0.22,7.6-1.38,11.05-3.56c3.45-2.17,6.14-5.1,7.98-8.43c0.01-0.02,0.02-0.04,0.03-0.06     c0.14-0.31,0.26-0.5,0.28-0.54c0-0.01,0.01-0.01,0.01-0.01C718.04,309.27,717.95,300.46,713.38,293.2z"
         id="path324" />
    </g>
    <rect
       width="97.144226"
       height="25.598118"
       x="442.32346"
       y="412.71713"
       fill="#182844"
       rx="12.801784"
       id="rect3581"
       style="stroke-width:0.544989" />
    <circle
       cx="490.89285"
       cy="405.1636"
       r="39.604324"
       fill="#182844"
       id="circle3583"
       style="stroke-width:0.544989" />
    <circle
       cx="524.84021"
       cy="412.71713"
       r="7.1066523"
       fill="#ffd5a7"
       id="circle3585"
       style="stroke-width:0.544989" />
    <circle
       cx="456.78198"
       cy="412.71713"
       r="7.1066523"
       fill="#ffd5a7"
       id="circle3587"
       style="stroke-width:0.544989" />
    <path
       fill="#ffd5a7"
       d="m 490.71845,371.17809 v 0 a 34.12174,34.12174 0 0 1 34.12175,34.12175 v 53.76858 h -68.24894 v -53.76858 a 34.12174,34.12174 0 0 1 34.12719,-34.12175 z"
       id="path3589"
       style="stroke-width:0.544989" />
    <path
       fill="#ffd5a7"
       d="m 448.62541,375.15138 -3.56538,2.11865 a 3.5642258,3.5642258 0 0 1 -4.88483,-1.24331 l -4.68275,-7.88038 a 5.6351827,5.6351827 0 0 1 1.96573,-7.72312 v 0 a 5.6351827,5.6351827 0 0 1 7.72312,1.96573 l 4.68274,7.88038 a 3.5642258,3.5642258 0 0 1 -1.24332,4.88484 z"
       id="path3591"
       style="stroke-width:0.544989" />
    <path
       fill="#ffd5a7"
       d="m 449.51271,373.01313 -3.54986,-0.37561 a 0.50683945,0.50683945 0 0 1 -0.45069,-0.55735 l 0.67151,-6.34639 a 2.2944022,2.2944022 0 0 1 2.5231,-2.04024 v 0 a 2.2944022,2.2944022 0 0 1 2.04024,2.52308 l -0.6675,6.30846 a 0.50683945,0.50683945 0 0 1 -0.55736,0.45069 z"
       id="path3593"
       style="stroke-width:0.544989" />
    <path
       fill="#ffd5a7"
       d="m 544.17925,360.43169 v 0 a 5.6351827,5.6351827 0 0 1 1.96574,7.72311 l -4.69667,7.9038 a 3.5642258,3.5642258 0 0 1 -4.88484,1.24332 l -3.56538,-2.11866 a 3.5642258,3.5642258 0 0 1 -1.24331,-4.88482 l 4.69667,-7.90381 a 5.6351827,5.6351827 0 0 1 7.72779,-1.96294 z"
       id="path3595"
       style="stroke-width:0.544989" />
    <path
       fill="#ffd5a7"
       d="m 532.90302,363.66587 v 0 a 2.2944022,2.2944022 0 0 1 2.52308,2.04024 l 0.67152,6.34639 a 0.50683945,0.50683945 0 0 1 -0.4507,0.55736 l -3.54986,0.3756 a 0.50683945,0.50683945 0 0 1 -0.55735,-0.45069 l -0.66979,-6.33013 a 2.2944022,2.2944022 0 0 1 2.04024,-2.52308 z"
       id="path3597"
       style="stroke-width:0.544989" />
    <rect
       width="68.243477"
       height="22.835026"
       x="456.59125"
       y="447.64545"
       fill="#e49e8a"
       id="rect3599"
       style="stroke-width:0.544989" />
    <rect
       width="8.3056269"
       height="22.835026"
       x="499.68893"
       y="447.64545"
       fill="#405182"
       id="rect3601"
       style="stroke-width:0.544989" />
    <rect
       width="8.3056269"
       height="22.835026"
       x="473.34967"
       y="447.64545"
       fill="#405182"
       id="rect3603"
       style="stroke-width:0.544989" />
    <path
       fill="#405182"
       d="m 456.59126,459.06297 h 68.24894 v 32.95546 a 8.7198184,8.7198184 0 0 1 -8.71983,8.71982 h -50.80383 a 8.7198184,8.7198184 0 0 1 -8.71982,-8.71982 v -32.95546 z"
       id="path3605"
       style="stroke-width:0.544989" />
    <path
       fill="#f8b558"
       d="m 490.7239,424.59788 c 1.88566,0 4.31087,-3.01379 6.14748,-1.17717 1.83661,1.83661 -0.327,7.15025 -6.14748,7.15025 -5.82047,0 -8.83971,-5.37903 -6.53986,-7.28105 2.29986,-1.90201 4.26182,1.30797 6.53986,1.30797 z"
       id="path3607"
       style="stroke-width:0.544989" />
    <ellipse
       cx="475.45877"
       cy="410.84781"
       fill="#ffffff"
       rx="11.455662"
       ry="13.237775"
       id="ellipse3609"
       style="stroke-width:0.544989" />
    <ellipse
       cx="478.91397"
       cy="410.84781"
       fill="#2c254c"
       rx="7.4390945"
       ry="8.594471"
       id="ellipse3611"
       style="stroke-width:0.544989" />
    <ellipse
       cx="109.22746"
       cy="620.93958"
       fill="#ffffff"
       rx="1.3679215"
       ry="1.9401594"
       transform="rotate(-40.07)"
       id="ellipse3613"
       style="stroke-width:0.544989" />
    <ellipse
       cx="505.97266"
       cy="410.84781"
       fill="#ffffff"
       rx="11.455662"
       ry="13.237775"
       id="ellipse3615"
       style="stroke-width:0.544989" />
    <ellipse
       cx="502.51743"
       cy="410.84781"
       fill="#2c254c"
       rx="7.4390945"
       ry="8.594471"
       id="ellipse3617"
       style="stroke-width:0.544989" />
    <ellipse
       cx="127.2821"
       cy="636.1311"
       fill="#ffffff"
       rx="1.3679215"
       ry="1.9401594"
       transform="rotate(-40.07)"
       id="ellipse3619"
       style="stroke-width:0.544989" />
    <path
       fill="#182844"
       d="m 509.88571,370.40422 a 39.604325,39.604325 0 0 0 -58.24294,29.53838 h 0.10355 l 5.05205,5.67333 c 0,0 1.08997,-5.30274 10.28938,-7.31374 l 0.50139,-0.11445 a 72.085649,72.085649 0 0 0 42.29657,-27.78352 z"
       id="path3621"
       style="stroke-width:0.544989" />
    <path
       fill="#182844"
       d="m 506.38143,368.6984 c -0.0491,0.82293 -0.0817,1.63497 -0.0817,2.47969 a 40.661603,40.661603 0 0 0 24.06669,37.11919 c 0.0817,-1.03548 0.13626,-2.07641 0.13626,-3.13369 A 39.631575,39.631575 0 0 0 506.38144,368.6984 Z"
       id="path3623"
       style="stroke-width:0.544989" />
    <path
       fill="#f8b558"
       d="m 497.42182,388.62864 a 13.390371,13.390371 0 0 1 3.42253,-0.94284 16.802,16.802 0 0 1 3.10643,-0.1526 17.396037,17.396037 0 0 1 5.60793,1.22623 17.668532,17.668532 0 0 1 4.9049,2.95929 16.938247,16.938247 0 0 1 2.17995,2.2399 13.43397,13.43397 0 0 1 1.84752,3.01924 l -0.19075,0.47414 -2.67589,-0.92648 -2.65955,-0.97553 c -1.77121,-0.65943 -3.52607,-1.35702 -5.28639,-2.03281 -1.76031,-0.67578 -3.50972,-1.40606 -5.24824,-2.11455 l -2.60504,-1.08998 -2.5887,-1.15537 z m -35.22807,8.34922 a 13.314073,13.314073 0 0 1 1.84207,-3.03014 16.894648,16.894648 0 0 1 2.17995,-2.2399 17.352439,17.352439 0 0 1 4.9049,-2.94839 17.564984,17.564984 0 0 1 5.61338,-1.21532 16.823799,16.823799 0 0 1 3.10644,0.15259 13.586567,13.586567 0 0 1 3.41708,0.93194 l 0.18529,0.47958 -2.58325,1.15538 -2.61049,1.08998 c -1.73852,0.73573 -3.49338,1.42787 -5.24279,2.1418 -1.74942,0.71394 -3.51518,1.37337 -5.28639,2.03281 l -2.65955,0.97553 -2.68134,0.92648 z"
       id="path3625"
       style="stroke-width:0.544989" />
    <line
       x1="531.90875"
       x2="540.62854"
       y1="505.00003"
       y2="497.17401"
       fill="none"
       stroke="#405182"
       stroke-linecap="round"
       stroke-linejoin="round"
       stroke-width="9.26483"
       id="line3627" />
    <line
       x1="449.88245"
       x2="441.15717"
       y1="505.00003"
       y2="497.17401"
       fill="none"
       stroke="#405182"
       stroke-linecap="round"
       stroke-linejoin="round"
       stroke-width="9.26483"
       id="line3629" />
    <path
       fill="#f3c4af"
       d="m 399.5194,558.06641 v 0 a 5.9715618,5.9715618 0 0 1 3.0719,7.86658 l -3.8937,8.8826 a 3.7745776,3.7745776 0 0 1 -4.9724,1.94165 l -4.0243,-1.76404 a 3.7745776,3.7745776 0 0 1 -1.9417,-4.9724 l 3.8937,-8.88259 a 5.9715618,5.9715618 0 0 1 7.8665,-3.0718 z"
       id="path3515"
       style="stroke-width:0.529394" />
    <rect
       width="14.854789"
       height="12.827211"
       x="581.02148"
       y="350.78647"
       fill="#f3c4af"
       rx="3.5204687"
       transform="rotate(23.67)"
       id="rect3517"
       style="stroke-width:0.529394" />
    <path
       fill="#e07b4f"
       d="m 304.7898,495.46256 36.1688,-9.18569 a 23.420381,23.420381 0 0 1 28.4648,16.93475 l 6.569,25.86561 -81.5837,20.71962 -6.569,-25.86562 a 23.420381,23.420381 0 0 1 16.9501,-28.46867 z"
       id="path3519"
       style="stroke-width:0.529394" />
    <path
       fill="#e07b4f"
       d="m 304.7898,495.46256 36.1688,-9.18569 a 23.420381,23.420381 0 0 1 28.4648,16.93475 l 6.569,25.86561 -81.5837,20.71962 -6.569,-25.86562 a 23.420381,23.420381 0 0 1 16.9501,-28.46867 z"
       id="path3521"
       style="stroke-width:0.529394" />
    <circle
       cx="333.23337"
       cy="531.65161"
       r="42.076218"
       fill="#e07b4f"
       id="circle3523"
       style="stroke-width:0.529394" />
    <circle
       cx="370.16391"
       cy="530.55579"
       r="7.5491552"
       fill="#f3c4af"
       id="circle3525"
       style="stroke-width:0.529394" />
    <circle
       cx="300.08279"
       cy="548.354"
       r="7.5491552"
       fill="#f3c4af"
       id="circle3527"
       style="stroke-width:0.529394" />
    <path
       fill="#f3c4af"
       d="m 324.1624,496.70176 v 0 a 36.252886,36.252886 0 0 1 44.0561,26.21495 l 14.0607,55.36401 -70.2954,17.85275 -14.0607,-55.36401 a 36.252886,36.252886 0 0 1 26.2393,-44.0677 z"
       id="path3529"
       style="stroke-width:0.529394" />
    <rect
       width="72.500473"
       height="24.262117"
       x="155.67319"
       y="642.45349"
       fill="#438faa"
       transform="rotate(-14.25)"
       id="rect3531"
       style="stroke-width:0.529394" />
    <rect
       width="8.8249941"
       height="24.262117"
       x="211.74588"
       y="642.45398"
       fill="#3f3f3f"
       transform="rotate(-14.25)"
       id="rect3533"
       style="stroke-width:0.529394" />
    <rect
       width="8.8249941"
       height="24.262117"
       x="194.06052"
       y="642.45093"
       fill="#3f3f3f"
       transform="rotate(-14.25)"
       id="rect3535"
       style="stroke-width:0.529394" />
    <path
       fill="#3f3f3f"
       d="m 312.015,596.12361 70.2954,-17.85275 8.6175,33.93162 a 9.2643911,9.2643911 0 0 1 -6.6989,11.25979 l -52.3366,13.29183 a 9.2643911,9.2643911 0 0 1 -11.2598,-6.69887 z"
       id="path3537"
       style="stroke-width:0.529394" />
    <ellipse
       cx="177.77505"
       cy="603.36035"
       fill="#ffffff"
       rx="12.170763"
       ry="14.060699"
       transform="rotate(-14.25)"
       id="ellipse3539"
       style="stroke-width:0.529394" />
    <ellipse
       cx="181.44736"
       cy="603.35815"
       fill="#182844"
       rx="7.9038491"
       ry="9.1320429"
       transform="rotate(-14.25)"
       id="ellipse3541"
       style="stroke-width:0.529394" />
    <ellipse
       cx="-244.80956"
       cy="574.94739"
       fill="#ffffff"
       rx="1.4503633"
       ry="2.0568788"
       transform="rotate(-54.395466)"
       id="ellipse3543"
       style="stroke-width:0.527405" />
    <ellipse
       cx="210.19327"
       cy="603.36469"
       fill="#ffffff"
       rx="12.170763"
       ry="14.060699"
       transform="rotate(-14.25)"
       id="ellipse3545"
       style="stroke-width:0.529394" />
    <ellipse
       cx="206.517"
       cy="603.35651"
       fill="#182844"
       rx="7.9038491"
       ry="9.1320429"
       transform="rotate(-14.25)"
       id="ellipse3547"
       style="stroke-width:0.529394" />
    <ellipse
       cx="-225.74144"
       cy="591.1001"
       fill="#ffffff"
       rx="1.4503633"
       ry="2.0568788"
       transform="rotate(-54.395466)"
       id="ellipse3549"
       style="stroke-width:0.527405" />
    <path
       fill="#f4987f"
       d="m 340.4756,551.51978 c 1.9376,-0.49233 4.2775,-2.24992 6.6492,-0.84173 2.3716,1.40818 1.5299,7.44327 -4.4575,8.96263 -5.9875,1.51936 -10.5032,-3.22401 -8.6397,-5.78098 1.8634,-2.55697 4.1028,-1.7417 6.448,-2.33992 z"
       id="path3551"
       style="stroke-width:0.529394" />
    <path
       fill="#e86275"
       d="m 338.0457,559.64598 c 0,0 2.2393,-5.51629 9.7249,-3.88575 0,-0.0265 -2.5093,5.37334 -9.7249,3.88575 z"
       id="path3553"
       style="stroke-width:0.529394" />
    <path
       fill="#f4987f"
       d="m 338.3368,515.21925 a 12.117824,12.117824 0 0 1 1.657,-1.08526 16.527674,16.527674 0 0 1 4.7646,-1.747 18.221734,18.221734 0 0 1 6.0933,-0.20646 18.639955,18.639955 0 0 1 5.8233,1.76288 17.708222,17.708222 0 0 1 2.8111,1.73641 15.966516,15.966516 0 0 1 1.3658,1.16467 12.117824,12.117824 0 0 1 1.3288,1.46642 l -0.069,0.52939 -3.0017,-0.25411 -2.9963,-0.30704 c -1.9958,-0.21706 -3.9811,-0.47646 -5.9769,-0.70939 -1.9958,-0.23293 -3.9757,-0.5294 -5.961,-0.83644 l -2.9699,-0.46058 -2.9699,-0.52939 z m -34.0929,17.80881 a 12.705451,12.705451 0 0 1 0.4658,-1.927 16.485322,16.485322 0 0 1 0.6406,-1.67817 17.581167,17.581167 0 0 1 1.6411,-2.86403 18.449373,18.449373 0 0 1 4.2987,-4.33044 18.71407,18.71407 0 0 1 5.4633,-2.71579 16.998834,16.998834 0 0 1 5.0293,-0.74644 12.514869,12.514869 0 0 1 1.9693,0.15882 l 0.3177,0.43939 -2.3611,1.87406 -2.3929,1.82111 c -1.5882,1.21231 -3.2293,2.38757 -4.8387,3.5787 -1.6093,1.19114 -3.261,2.33463 -4.9127,3.47812 l -2.4829,1.69936 -2.5199,1.657 z"
       id="path3555"
       style="stroke-width:0.529394" />
    <path
       fill="#e07b4f"
       d="m 355.3568,487.20903 v 0 c -0.5294,-0.21706 -1.0958,-0.41293 -1.6517,-0.58763 h -0.069 l -0.7359,-0.21176 -0.2594,-0.0688 -0.3917,-0.10059 v 0 a 23.293326,23.293326 0 0 0 -9.8361,-0.24881 h -0.1006 c -0.4447,0.0847 -0.8841,0.17999 -1.3288,0.29117 l -36.1682,9.18498 c -0.4341,0.11117 -0.8576,0.23823 -1.2811,0.37057 l -0.1112,0.0318 a 23.293326,23.293326 0 0 0 -8.5338,4.91807 v 0 c -0.069,0.0582 -0.1324,0.12705 -0.1959,0.18528 l -0.3918,0.37058 -0.3229,0.31764 -0.3441,0.35469 -0.3282,0.35469 c -0.1059,0.11118 -0.2065,0.22764 -0.3071,0.34411 l -0.3282,0.37587 -0.058,0.0688 v 0 a 23.520965,23.520965 0 0 0 -4.5687,8.66088 v 0 c -0.063,0.21176 -0.1059,0.42352 -0.1588,0.63527 -0.1218,0.47117 -0.2224,0.94762 -0.3123,1.42407 -0.058,0.29646 -0.1165,0.58763 -0.1589,0.88409 v 0.0688 0 a 23.261563,23.261563 0 0 0 0.4818,9.08969 l 1.3235,5.20394 1.7152,-0.43939 1.4505,-0.36528 4.7646,-1.21761 c 1.0588,-6.88212 4.3463,-13.46778 10.7626,-15.09831 a 11.93783,11.93783 0 0 1 7.1044,0.38646 21.498681,21.498681 0 0 0 25.0986,-6.35273 11.906066,11.906066 0 0 1 6.0615,-3.70575 c 6.4163,-1.63054 12.1761,2.64696 16.263,8.23207 l 8.3221,-2.11758 -1.3235,-5.20394 a 23.388617,23.388617 0 0 0 -14.0819,-16.03533 z"
       id="path3557"
       style="stroke-width:0.529394" />
    <rect
       width="22.054544"
       height="9.7249641"
       x="-384.60666"
       y="639.97882"
       fill="#3f3f3f"
       rx="4.8598351"
       transform="rotate(-62.95)"
       id="rect3573"
       style="stroke-width:0.529394" />
    <path
       fill="#f3c4af"
       d="m 324.5732,621.12757 v 0 a 5.9821497,5.9821497 0 0 1 -8.4524,0.36018 l -7.167,-6.58118 a 3.7798716,3.7798716 0 0 1 -0.2276,-5.3407 l 2.9756,-3.24036 a 3.7798716,3.7798716 0 0 1 5.3406,-0.22758 l 7.1709,6.58476 a 5.9821497,5.9821497 0 0 1 0.3599,8.44488 z"
       id="path3575"
       style="stroke-width:0.529394" />
    <rect
       width="14.875965"
       height="12.848387"
       x="229.03291"
       y="-659.12103"
       fill="#f3c4af"
       rx="3.5257626"
       transform="rotate(132.56)"
       id="rect3577"
       style="stroke-width:0.529394" />
    <polyline
       fill="none"
       stroke="#3f3f3f"
       stroke-linecap="round"
       stroke-linejoin="round"
       stroke-width="18.46"
       points="1153.64 496.35 1159.63 507.94 1173.77 507.94"
       id="polyline3579"
       transform="matrix(0.52939378,0,0,0.52939378,-298.84153,381.76967)" />
  </g>
</svg>
